<?xml version="1.0" encoding="UTF-8" standalone="no"?>
<svg
   xmlns:dc="http://purl.org/dc/elements/1.1/"
   xmlns:cc="http://creativecommons.org/ns#"
   xmlns:rdf="http://www.w3.org/1999/02/22-rdf-syntax-ns#"
   xmlns:svg="http://www.w3.org/2000/svg"
   xmlns="http://www.w3.org/2000/svg"
   xmlns:sodipodi="http://sodipodi.sourceforge.net/DTD/sodipodi-0.dtd"
   xmlns:inkscape="http://www.inkscape.org/namespaces/inkscape"
   color-rendering="auto"
   color-interpolation="auto"
   text-rendering="auto"
   width="300"
   stroke-miterlimit="10"
   shape-rendering="auto"
   font-weight="normal"
   height="150"
   font-style="normal"
   font-size="12"
   image-rendering="auto"
   id="svg2"
   version="1.1"
   inkscape:version="0.48.4 r9939"
   sodipodi:docname="DataRateSetup.svg"
   style="font-size:12px;font-style:normal;font-weight:normal;fill:#000000;fill-opacity:1;stroke:#000000;stroke-width:1;stroke-linecap:square;stroke-linejoin:miter;stroke-miterlimit:10;stroke-opacity:1;stroke-dasharray:none;stroke-dashoffset:0;font-family:Dialog">
  <metadata
     id="metadata42">
    <rdf:RDF>
      <cc:Work
         rdf:about="">
        <dc:format>image/svg+xml</dc:format>
        <dc:type
           rdf:resource="http://purl.org/dc/dcmitype/StillImage" />
      </cc:Work>
    </rdf:RDF>
  </metadata>
  <sodipodi:namedview
     pagecolor="#ffffff"
     bordercolor="#666666"
     borderopacity="1"
     objecttolerance="10"
     gridtolerance="10"
     guidetolerance="10"
     inkscape:pageopacity="0"
     inkscape:pageshadow="2"
     inkscape:window-width="1629"
     inkscape:window-height="1026"
     id="namedview40"
     showgrid="false"
     showborder="true"
     borderlayer="true"
     inkscape:showpageshadow="false"
     fit-margin-top="0"
     fit-margin-left="0"
     fit-margin-right="0"
     fit-margin-bottom="0"
     inkscape:zoom="2.7530024"
     inkscape:cx="186.42119"
     inkscape:cy="16.843168"
     inkscape:window-x="51"
     inkscape:window-y="24"
     inkscape:window-maximized="1"
     inkscape:current-layer="svg2" />
  <!--Generated by ySVG 2.5-->
  <defs
     id="genericDefs" />
  <g
     id="g5"
     transform="translate(0.37228487,0.29135493)">
    <defs
       id="defs1">
      <clipPath
         clipPathUnits="userSpaceOnUse"
         id="clipPath1">
        <path
           d="M 0,0 300,0 300,111 0,111 0,0 z"
           id="path9"
           inkscape:connector-curvature="0" />
      </clipPath>
      <clipPath
         clipPathUnits="userSpaceOnUse"
         id="clipPath2">
        <path
           d="m -152,-239 300,0 0,111 -300,0 0,-111 z"
           id="path12"
           inkscape:connector-curvature="0" />
      </clipPath>
    </defs>
    <g
       text-rendering="geometricPrecision"
       shape-rendering="geometricPrecision"
       transform="translate(152,239)"
       id="g14"
       style="fill:#ffffff;stroke:#ffffff">
      <rect
         x="-152"
         width="300"
         height="111"
         y="-239"
         clip-path="url(#clipPath2)"
         id="rect16"
         style="stroke:none" />
    </g>
    <g
       font-size="11"
       transform="translate(152,239)"
       text-rendering="geometricPrecision"
       shape-rendering="geometricPrecision"
       stroke-miterlimit="1.45"
       id="g18"
       style="font-size:11px;stroke-linecap:butt;stroke-miterlimit:1.45000005;font-family:Helvetica Neue">
      <text
         x="-126.9413"
         xml:space="preserve"
         y="-185.8047"
         clip-path="url(#clipPath2)"
         id="text20"
         style="stroke:none">Master in LL</text>
      <text
         x="-127.8476"
         xml:space="preserve"
         y="-173.00571"
         clip-path="url(#clipPath2)"
         id="text22"
         style="stroke:none">Client in ATT</text>
      <rect
         x="-136.5146"
         y="-223.6185"
         clip-path="url(#clipPath2)"
         width="80"
         rx="4"
         ry="4"
         height="80"
         id="rect24"
         style="fill:none;stroke-width:2" />
      <text
         x="65.494698"
         xml:space="preserve"
         y="-185.8047"
         clip-path="url(#clipPath2)"
         id="text26"
         style="stroke:none">Slave in LL</text>
      <text
         x="59.298401"
         xml:space="preserve"
         y="-173.00571"
         clip-path="url(#clipPath2)"
         id="text28"
         style="stroke:none">Server in ATT</text>
      <rect
         x="52.356201"
         y="-223.6185"
         clip-path="url(#clipPath2)"
         width="80"
         rx="4"
         ry="4"
         height="80"
         id="rect30"
         style="fill:none;stroke-width:2" />
    </g>
    <g
       text-rendering="geometricPrecision"
       stroke-miterlimit="1.45"
       shape-rendering="geometricPrecision"
       transform="translate(152,239)"
       id="g32"
       style="stroke-width:3;stroke-linecap:butt;stroke-miterlimit:1.45000005">
      <path
         d="m -41.4925,-189.8685 -15,6.25 15,6.25 -2.85,-4.75 96.7205,0 0,-3 -96.7205,0 2.85,-4.75 z"
         clip-path="url(#clipPath2)"
         id="path34"
         inkscape:connector-curvature="0"
         style="stroke:none" />
      <path
         d="m -41.4925,-189.8685 -15,6.25 15,6.25 -2.85,-4.75 96.7205,0 0,-3 -96.7205,0 2.85,-4.75 z"
         clip-path="url(#clipPath2)"
         id="path36"
         inkscape:connector-curvature="0"
         style="fill:none;stroke-width:1" />
      <text
         x="-39.631901"
         y="-191.0322"
         clip-path="url(#clipPath2)"
         xml:space="preserve"
         id="text38"
         style="stroke:none;font-family:sans-serif">Notifications</text>
    </g>
  </g>
  <g
     id="g3091"
     transform="matrix(0.0888402,0,0,0.0888402,128.97805,85.387505)">
    <path
       id="path3077"
       d="m 233.503,70.369 c 93.726,-6.75 189.622,28.317 256.515,94.363 8.765,9.023 7.622,24.807 -1.625,33.076 -8.493,10.012 -25.501,10.189 -34.266,0.436 -57.224,-55.091 -138.018,-84.881 -217.35,-78.956 -65.905,4.24 -129.749,32.628 -177.572,78.096 -4.253,4.347 -9.684,7.916 -15.938,8.222 -15.666,1.837 -30.154,-14.536 -26.773,-29.86 0.954,-5.501 4.487,-10.083 8.527,-13.747 55.988,-53.607 131.151,-86.53 208.482,-91.63 z"
       inkscape:connector-curvature="0"
       style="fill:#020202" />
    <path
       id="path3079"
       d="m 231.183,162.282 c 71.806,-7.81 146.369,18.658 197.183,69.968 7.939,9.07 6.95,23.901 -1.872,32.052 -8.046,9.847 -24.265,10.953 -33.383,2.024 -32.534,-32.074 -76.518,-52.44 -122.126,-55.774 -55.387,-4.594 -111.974,16.42 -151.411,55.445 -9.094,9.612 -26.033,8.518 -34.218,-1.708 -8.823,-8.327 -9.553,-23.559 -1.084,-32.381 39.084,-39.106 91.937,-63.984 146.911,-69.626 z"
       inkscape:connector-curvature="0"
       style="fill:#020202" />
    <path
       id="path3081"
       d="m 241.796,252.97 c 45.314,-4.499 92.161,12.852 123.693,45.669 8.634,8.987 7.634,24.454 -1.461,32.77 -8.257,9.966 -24.807,10.638 -33.782,1.296 -17.774,-18.245 -42.394,-29.778 -67.884,-31.168 -28.929,-2.062 -58.201,9.365 -78.744,29.695 -5.053,5.679 -12.557,9.165 -20.237,8.259 -17.833,-1.25 -30.213,-25.056 -17.928,-39.344 24.807,-26.904 60.039,-43.572 96.343,-47.177 z"
       inkscape:connector-curvature="0"
       style="fill:#020202" />
    <path
       id="path3083"
       d="m 248.781,337.651 c 29.201,-4.9 58.837,19.213 59.78,48.824 2.709,29.036 -22.923,56.589 -52.063,55.951 -26.197,0.908 -50.475,-20.825 -52.772,-46.88 -3.735,-27.352 17.656,-54.738 45.055,-57.895 z"
       inkscape:connector-curvature="0"
       style="fill:#020202" />
  </g>
  <text
     xml:space="preserve"
     style="font-size:40px;font-style:normal;font-weight:normal;line-height:125%;letter-spacing:0px;word-spacing:0px;fill:#000000;fill-opacity:1;stroke:none;font-family:Sans"
     x="149.83641"
     y="134.74394"
     id="text3104"
     sodipodi:linespacing="125%"><tspan
       sodipodi:role="line"
       id="tspan3106"
       x="149.83641"
       y="134.74394"
       style="font-size:11px;font-style:normal;font-variant:normal;font-weight:normal;font-stretch:normal;text-align:center;line-height:125%;writing-mode:lr-tb;text-anchor:middle;font-family:Helvetica Neue;-inkscape-font-specification:Helvetica Neue">WiFi Interference</tspan><tspan
       sodipodi:role="line"
       x="149.83641"
       y="148.49394"
       id="tspan3110"
       style="font-size:11px;font-style:normal;font-variant:normal;font-weight:normal;font-stretch:normal;text-align:center;line-height:125%;writing-mode:lr-tb;text-anchor:middle;font-family:Helvetica Neue;-inkscape-font-specification:Helvetica Neue">ON/OFF</tspan></text>
</svg>
