<?xml version="1.0" encoding="UTF-8" standalone="no"?>
<!DOCTYPE svg PUBLIC "-//W3C//DTD SVG 1.1//EN"
 "http://www.w3.org/Graphics/SVG/1.1/DTD/svg11.dtd">
<!-- Generated by graphviz version 2.36.0 (20140111.2315)
 -->
<!-- Title: main_flow Pages: 1 -->
<svg width="370pt" height="390pt"
 viewBox="0.00 0.00 370.00 390.00" xmlns="http://www.w3.org/2000/svg" xmlns:xlink="http://www.w3.org/1999/xlink">
<g id="graph0" class="graph" transform="scale(1 1) rotate(0) translate(4 386)">
<title>main_flow</title>
<polygon fill="white" stroke="none" points="-4,4 -4,-386 366,-386 366,4 -4,4"/>
<!-- a -->
<g id="node1" class="node"><title>a</title>
<ellipse fill="none" stroke="black" cx="181" cy="-364" rx="51.0191" ry="18"/>
<text text-anchor="middle" x="181" y="-360.3" font-family="Helvetica Neue" font-size="14.00">On restart</text>
</g>
<!-- b -->
<g id="node2" class="node"><title>b</title>
<polygon fill="none" stroke="black" points="71.5,-217 71.5,-309 290.5,-309 290.5,-217 71.5,-217"/>
<text text-anchor="start" x="80" y="-294.8" font-family="Helvetica Neue" font-size="14.00">Initiation of the peripherals used</text>
<text text-anchor="start" x="131" y="-280.8" font-family="Helvetica Neue" font-style="italic" font-size="14.00">HF and LF clock</text>
<text text-anchor="start" x="141.5" y="-266.8" font-family="Helvetica Neue" font-style="italic" font-size="14.00">Profile Timer</text>
<text text-anchor="start" x="123.5" y="-252.8" font-family="Helvetica Neue" font-style="italic" font-size="14.00">Milli&#45;second Timer</text>
<text text-anchor="start" x="130" y="-238.8" font-family="Helvetica Neue" font-style="italic" font-size="14.00">UART peripheral</text>
<text text-anchor="start" x="79.5" y="-224.8" font-family="Helvetica Neue" font-style="italic" font-size="14.00">Radio for continuously observing</text>
</g>
<!-- a&#45;&gt;b -->
<g id="edge1" class="edge"><title>a&#45;&gt;b</title>
<path fill="none" stroke="black" d="M181,-345.756C181,-338.19 181,-328.844 181,-319.206"/>
<polygon fill="black" stroke="black" points="184.5,-319.118 181,-309.118 177.5,-319.118 184.5,-319.118"/>
</g>
<!-- c -->
<g id="node3" class="node"><title>c</title>
<polygon fill="none" stroke="black" points="362.088,-180 74.0177,-180 -0.087679,-144 287.982,-144 362.088,-180"/>
<text text-anchor="middle" x="181" y="-158.3" font-family="Helvetica Neue" font-size="14.00">Print the welcome message</text>
</g>
<!-- b&#45;&gt;c -->
<g id="edge2" class="edge"><title>b&#45;&gt;c</title>
<path fill="none" stroke="black" d="M181,-216.846C181,-207.768 181,-198.494 181,-190.258"/>
<polygon fill="black" stroke="black" points="184.5,-190.131 181,-180.131 177.5,-190.131 184.5,-190.131"/>
</g>
<!-- d -->
<g id="node4" class="node"><title>d</title>
<polygon fill="none" stroke="black" points="282,-108 80,-108 80,-72 282,-72 282,-108"/>
<text text-anchor="middle" x="181" y="-86.3" font-family="Helvetica Neue" font-size="14.00">Set the UART receive handler</text>
</g>
<!-- c&#45;&gt;d -->
<g id="edge3" class="edge"><title>c&#45;&gt;d</title>
<path fill="none" stroke="black" d="M181,-143.697C181,-135.983 181,-126.712 181,-118.112"/>
<polygon fill="black" stroke="black" points="184.5,-118.104 181,-108.104 177.5,-118.104 184.5,-118.104"/>
</g>
<!-- e -->
<g id="node5" class="node"><title>e</title>
<ellipse fill="none" stroke="black" cx="181" cy="-18" rx="121.309" ry="18"/>
<text text-anchor="middle" x="181" y="-14.3" font-family="Helvetica Neue" font-size="14.00">Sleep and wait for interrupt</text>
</g>
<!-- d&#45;&gt;e -->
<g id="edge4" class="edge"><title>d&#45;&gt;e</title>
<path fill="none" stroke="black" d="M181,-71.6966C181,-63.9827 181,-54.7125 181,-46.1124"/>
<polygon fill="black" stroke="black" points="184.5,-46.1043 181,-36.1043 177.5,-46.1044 184.5,-46.1043"/>
</g>
</g>
</svg>
