<?xml version="1.0" encoding="UTF-8" standalone="no"?>
<!DOCTYPE svg PUBLIC "-//W3C//DTD SVG 1.1//EN"
 "http://www.w3.org/Graphics/SVG/1.1/DTD/svg11.dtd">
<!-- Generated by graphviz version 2.36.0 (20140111.2315)
 -->
<!-- Title: main_flow Pages: 1 -->
<svg width="326pt" height="390pt"
 viewBox="0.00 0.00 326.00 390.00" xmlns="http://www.w3.org/2000/svg" xmlns:xlink="http://www.w3.org/1999/xlink">
<g id="graph0" class="graph" transform="scale(1 1) rotate(0) translate(4 386)">
<title>main_flow</title>
<polygon fill="white" stroke="none" points="-4,4 -4,-386 322,-386 322,4 -4,4"/>
<!-- a -->
<g id="node1" class="node"><title>a</title>
<ellipse fill="none" stroke="black" cx="159" cy="-364" rx="46.2191" ry="18"/>
<text text-anchor="middle" x="159" y="-360.3" font-family="Times,serif" font-size="14.00">On restart</text>
</g>
<!-- b -->
<g id="node2" class="node"><title>b</title>
<polygon fill="none" stroke="black" points="60,-217 60,-309 258,-309 258,-217 60,-217"/>
<text text-anchor="start" x="70" y="-294.8" font-family="Times,serif" font-size="14.00">Initiation of the peripherals used</text>
<text text-anchor="start" x="112" y="-280.8" font-family="Times,serif" font-style="italic" font-size="14.00">HF and LF clock</text>
<text text-anchor="start" x="122" y="-266.8" font-family="Times,serif" font-style="italic" font-size="14.00">Profile Timer</text>
<text text-anchor="start" x="106" y="-252.8" font-family="Times,serif" font-style="italic" font-size="14.00">Milli&#45;second Timer</text>
<text text-anchor="start" x="111.5" y="-238.8" font-family="Times,serif" font-style="italic" font-size="14.00">UART peripheral</text>
<text text-anchor="start" x="68" y="-224.8" font-family="Times,serif" font-style="italic" font-size="14.00">Radio for continuously observing</text>
</g>
<!-- a&#45;&gt;b -->
<g id="edge1" class="edge"><title>a&#45;&gt;b</title>
<path fill="none" stroke="black" d="M159,-345.756C159,-338.19 159,-328.844 159,-319.206"/>
<polygon fill="black" stroke="black" points="162.5,-319.118 159,-309.118 155.5,-319.118 162.5,-319.118"/>
</g>
<!-- c -->
<g id="node3" class="node"><title>c</title>
<polygon fill="none" stroke="black" points="318.211,-180 64.9417,-180 -0.21133,-144 253.058,-144 318.211,-180"/>
<text text-anchor="middle" x="159" y="-158.3" font-family="Times,serif" font-size="14.00">Print the welcome message</text>
</g>
<!-- b&#45;&gt;c -->
<g id="edge2" class="edge"><title>b&#45;&gt;c</title>
<path fill="none" stroke="black" d="M159,-216.846C159,-207.768 159,-198.494 159,-190.258"/>
<polygon fill="black" stroke="black" points="162.5,-190.131 159,-180.131 155.5,-190.131 162.5,-190.131"/>
</g>
<!-- d -->
<g id="node4" class="node"><title>d</title>
<polygon fill="none" stroke="black" points="250,-108 68,-108 68,-72 250,-72 250,-108"/>
<text text-anchor="middle" x="159" y="-86.3" font-family="Times,serif" font-size="14.00">Set the UART receive handler</text>
</g>
<!-- c&#45;&gt;d -->
<g id="edge3" class="edge"><title>c&#45;&gt;d</title>
<path fill="none" stroke="black" d="M159,-143.697C159,-135.983 159,-126.712 159,-118.112"/>
<polygon fill="black" stroke="black" points="162.5,-118.104 159,-108.104 155.5,-118.104 162.5,-118.104"/>
</g>
<!-- e -->
<g id="node5" class="node"><title>e</title>
<ellipse fill="none" stroke="black" cx="159" cy="-18" rx="108.31" ry="18"/>
<text text-anchor="middle" x="159" y="-14.3" font-family="Times,serif" font-size="14.00">Sleep and wait for interrupt</text>
</g>
<!-- d&#45;&gt;e -->
<g id="edge4" class="edge"><title>d&#45;&gt;e</title>
<path fill="none" stroke="black" d="M159,-71.6966C159,-63.9827 159,-54.7125 159,-46.1124"/>
<polygon fill="black" stroke="black" points="162.5,-46.1043 159,-36.1043 155.5,-46.1044 162.5,-46.1043"/>
</g>
</g>
</svg>
