<?xml version="1.0" encoding="UTF-8"?><svg xmlns="http://www.w3.org/2000/svg" xmlns:xlink="http://www.w3.org/1999/xlink" fill-opacity="1" color-rendering="auto" color-interpolation="auto" stroke="black" text-rendering="auto" stroke-linecap="square" width="550" stroke-miterlimit="10" stroke-opacity="1" shape-rendering="auto" fill="black" stroke-dasharray="none" font-weight="normal" stroke-width="1" height="417" font-family="'Dialog'" font-style="normal" stroke-linejoin="miter" font-size="12" stroke-dashoffset="0" image-rendering="auto">
  <!--Generated by ySVG 2.5-->
  <defs id="genericDefs"/>
  <g>
    <defs id="defs1">
      <clipPath clipPathUnits="userSpaceOnUse" id="clipPath1">
        <path d="M0 0 L550 0 L550 417 L0 417 L0 0 Z"/>
      </clipPath>
      <clipPath clipPathUnits="userSpaceOnUse" id="clipPath2">
        <path d="M235 255 L785 255 L785 672 L235 672 L235 255 Z"/>
      </clipPath>
    </defs>
    <g fill="white" text-rendering="geometricPrecision" shape-rendering="geometricPrecision" transform="translate(-235,-255)" stroke="white">
      <rect x="235" width="550" height="417" y="255" clip-path="url(#clipPath2)" stroke="none"/>
    </g>
    <g text-rendering="geometricPrecision" stroke-miterlimit="1.45" shape-rendering="geometricPrecision" font-family="sans-serif" transform="matrix(1,0,0,1,-235,-255)" stroke-linecap="butt">
      <text x="320.8389" xml:space="preserve" y="302.8394" clip-path="url(#clipPath2)" stroke="none">Makefile where the project is present i.e. in the example folder</text>
      <rect x="250" y="270.75" clip-path="url(#clipPath2)" fill="none" width="520" rx="4" ry="4" height="386.05"/>
      <text x="318.542" xml:space="preserve" y="352.5293" clip-path="url(#clipPath2)" stroke="none">Makefile indicating the target platform (if not already specified)</text>
      <rect x="270" y="323.375" clip-path="url(#clipPath2)" fill="none" width="480" rx="4" ry="4" height="50"/>
      <text x="384.4248" xml:space="preserve" y="419.447" clip-path="url(#clipPath2)" stroke="none">Makefile.include in root CONTIKI directory</text>
      <rect x="270" y="394.5" clip-path="url(#clipPath2)" fill="none" width="480" rx="4" ry="4" height="240.55"/>
      <text x="379.4385" xml:space="preserve" y="468.8543" clip-path="url(#clipPath2)" stroke="none">Makefile of applications, if any are required</text>
      <rect x="290" y="439.7" clip-path="url(#clipPath2)" fill="none" width="440" rx="4" ry="4" height="50"/>
      <text x="342.8701" xml:space="preserve" y="528.4694" clip-path="url(#clipPath2)" stroke="none">Makefile of the target, present in the platform directory</text>
      <rect x="290" y="510.25" clip-path="url(#clipPath2)" fill="none" width="440" rx="4" ry="4" height="103.5"/>
      <text x="340.5293" xml:space="preserve" y="574.1543" clip-path="url(#clipPath2)" stroke="none">Makefile of the SoC or MCU, present in the cpu directory</text>
      <rect x="310" y="545" clip-path="url(#clipPath2)" fill="none" width="400" rx="4" ry="4" height="50"/>
    </g>
  </g>
</svg>
