<?xml version="1.0" encoding="UTF-8" standalone="no"?>
<!DOCTYPE svg PUBLIC "-//W3C//DTD SVG 1.1//EN"
 "http://www.w3.org/Graphics/SVG/1.1/DTD/svg11.dtd">
<!-- Generated by graphviz version 2.36.0 (20140111.2315)
 -->
<!-- Title: radio_isr Pages: 1 -->
<svg width="481pt" height="602pt"
 viewBox="0.00 0.00 481.00 602.00" xmlns="http://www.w3.org/2000/svg" xmlns:xlink="http://www.w3.org/1999/xlink">
<g id="graph0" class="graph" transform="scale(1 1) rotate(0) translate(4 598)">
<title>radio_isr</title>
<polygon fill="white" stroke="none" points="-4,4 -4,-598 477,-598 477,4 -4,4"/>
<!-- start -->
<g id="node1" class="node"><title>start</title>
<ellipse fill="none" stroke="black" cx="190" cy="-576" rx="138.157" ry="18"/>
<text text-anchor="middle" x="190" y="-572.3" font-family="Times,serif" font-size="14.00">Start of the Radio&#39;s interrupt routine</text>
</g>
<!-- is_end -->
<g id="node2" class="node"><title>is_end</title>
<polygon fill="none" stroke="black" points="190,-520 53.5682,-502 190,-484 326.432,-502 190,-520"/>
<text text-anchor="middle" x="190" y="-498.3" font-family="Times,serif" font-size="14.00">Is it a packet end event?</text>
</g>
<!-- start&#45;&gt;is_end -->
<g id="edge1" class="edge"><title>start&#45;&gt;is_end</title>
<path fill="none" stroke="black" d="M190,-557.937C190,-549.807 190,-539.876 190,-530.705"/>
<polygon fill="black" stroke="black" points="193.5,-530.441 190,-520.441 186.5,-530.441 193.5,-530.441"/>
</g>
<!-- is_rssiend -->
<g id="node3" class="node"><title>is_rssiend</title>
<polygon fill="none" stroke="black" points="190,-198 14.6615,-180 190,-162 365.338,-180 190,-198"/>
<text text-anchor="middle" x="190" y="-176.3" font-family="Times,serif" font-size="14.00">Is it a RSSI measure end event?</text>
</g>
<!-- is_end&#45;&gt;is_rssiend -->
<g id="edge5" class="edge"><title>is_end&#45;&gt;is_rssiend</title>
<path fill="none" stroke="black" d="M181.786,-485.059C175.232,-471.391 166.578,-450.961 163,-432 147.696,-350.89 169.522,-253.278 182.13,-207.34"/>
<polygon fill="black" stroke="black" points="185.537,-208.153 184.886,-197.578 178.8,-206.251 185.537,-208.153"/>
<text text-anchor="middle" x="174" y="-326.3" font-family="Times,serif" font-size="14.00">false</text>
</g>
<!-- check_ptr -->
<g id="node4" class="node"><title>check_ptr</title>
<polygon fill="none" stroke="black" points="296,-432 172,-394 296,-356 420,-394 296,-432"/>
<text text-anchor="middle" x="296" y="-397.8" font-family="Times,serif" font-size="14.00">Is there still</text>
<text text-anchor="middle" x="296" y="-382.8" font-family="Times,serif" font-size="14.00">space in the buffer?</text>
</g>
<!-- is_end&#45;&gt;check_ptr -->
<g id="edge2" class="edge"><title>is_end&#45;&gt;check_ptr</title>
<path fill="none" stroke="black" d="M205.187,-485.813C219.439,-471.561 241.302,-449.698 260.004,-430.996"/>
<polygon fill="black" stroke="black" points="262.664,-433.286 267.26,-423.74 257.714,-428.336 262.664,-433.286"/>
<text text-anchor="middle" x="251" y="-454.3" font-family="Times,serif" font-size="14.00">true</text>
</g>
<!-- rssi -->
<g id="node6" class="node"><title>rssi</title>
<polygon fill="none" stroke="black" points="186.25,-110 -0.25,-110 -0.25,-74 186.25,-74 186.25,-110"/>
<text text-anchor="middle" x="93" y="-88.3" font-family="Times,serif" font-size="14.00">Store the measured RSSI value</text>
</g>
<!-- is_rssiend&#45;&gt;rssi -->
<g id="edge6" class="edge"><title>is_rssiend&#45;&gt;rssi</title>
<path fill="none" stroke="black" d="M172.658,-163.625C158.047,-150.671 136.894,-131.916 120.057,-116.989"/>
<polygon fill="black" stroke="black" points="121.99,-114.025 112.186,-110.01 117.346,-119.263 121.99,-114.025"/>
<text text-anchor="middle" x="162" y="-132.3" font-family="Times,serif" font-size="14.00">true</text>
</g>
<!-- return -->
<g id="node7" class="node"><title>return</title>
<ellipse fill="none" stroke="black" cx="184" cy="-18" rx="128.058" ry="18"/>
<text text-anchor="middle" x="184" y="-14.3" font-family="Times,serif" font-size="14.00">Return from the interrupt routine</text>
</g>
<!-- is_rssiend&#45;&gt;return -->
<g id="edge7" class="edge"><title>is_rssiend&#45;&gt;return</title>
<path fill="none" stroke="black" d="M192.305,-162.231C194.811,-141.472 198.075,-105.055 195,-74 194.09,-64.8063 192.343,-54.8729 190.505,-46.0108"/>
<polygon fill="black" stroke="black" points="193.916,-45.2236 188.351,-36.2082 187.079,-46.7264 193.916,-45.2236"/>
<text text-anchor="middle" x="210" y="-88.3" font-family="Times,serif" font-size="14.00">false</text>
</g>
<!-- check_ptr&#45;&gt;is_rssiend -->
<g id="edge4" class="edge"><title>check_ptr&#45;&gt;is_rssiend</title>
<path fill="none" stroke="black" d="M257.044,-367.756C236.336,-352.069 212.611,-329.963 200,-304 185.257,-273.647 184.869,-234.086 186.754,-208.135"/>
<polygon fill="black" stroke="black" points="190.263,-208.185 187.666,-197.913 183.291,-207.563 190.263,-208.185"/>
<text text-anchor="middle" x="213" y="-266.3" font-family="Times,serif" font-size="14.00">false</text>
</g>
<!-- collect -->
<g id="node5" class="node"><title>collect</title>
<polygon fill="none" stroke="black" points="473.25,-304 234.75,-304 234.75,-236 473.25,-236 473.25,-304"/>
<text text-anchor="middle" x="354" y="-288.8" font-family="Times,serif" font-size="14.00">1. Copy the contents of the received</text>
<text text-anchor="middle" x="354" y="-273.8" font-family="Times,serif" font-size="14.00">packet, RSSI value, Channel number,</text>
<text text-anchor="middle" x="354" y="-258.8" font-family="Times,serif" font-size="14.00">CRC status and time&#45;stamp to the buffer</text>
<text text-anchor="middle" x="354" y="-243.8" font-family="Times,serif" font-size="14.00">2. Increment the received packet pointer</text>
</g>
<!-- check_ptr&#45;&gt;collect -->
<g id="edge3" class="edge"><title>check_ptr&#45;&gt;collect</title>
<path fill="none" stroke="black" d="M311.391,-360.627C318.227,-346.246 326.369,-329.119 333.696,-313.709"/>
<polygon fill="black" stroke="black" points="337,-314.91 338.133,-304.376 330.678,-311.905 337,-314.91"/>
<text text-anchor="middle" x="339" y="-326.3" font-family="Times,serif" font-size="14.00">true</text>
</g>
<!-- collect&#45;&gt;is_rssiend -->
<g id="edge8" class="edge"><title>collect&#45;&gt;is_rssiend</title>
<path fill="none" stroke="black" d="M292.466,-235.982C269.868,-223.856 245.056,-210.542 225.508,-200.053"/>
<polygon fill="black" stroke="black" points="227.112,-196.942 216.646,-195.298 223.803,-203.11 227.112,-196.942"/>
</g>
<!-- rssi&#45;&gt;return -->
<g id="edge9" class="edge"><title>rssi&#45;&gt;return</title>
<path fill="none" stroke="black" d="M114.566,-73.937C126.465,-64.522 141.418,-52.6912 154.397,-42.4221"/>
<polygon fill="black" stroke="black" points="156.919,-44.8902 162.589,-35.9405 152.575,-39.4006 156.919,-44.8902"/>
</g>
</g>
</svg>
