<?xml version="1.0" encoding="UTF-8" standalone="no"?>
<!DOCTYPE svg PUBLIC "-//W3C//DTD SVG 1.1//EN"
 "http://www.w3.org/Graphics/SVG/1.1/DTD/svg11.dtd">
<!-- Generated by graphviz version 2.36.0 (20140111.2315)
 -->
<!-- Title: radio_isr Pages: 1 -->
<svg width="542pt" height="682pt"
 viewBox="0.00 0.00 542.00 682.00" xmlns="http://www.w3.org/2000/svg" xmlns:xlink="http://www.w3.org/1999/xlink">
<g id="graph0" class="graph" transform="scale(1 1) rotate(0) translate(4 678)">
<title>radio_isr</title>
<polygon fill="white" stroke="none" points="-4,4 -4,-678 538,-678 538,4 -4,4"/>
<!-- start -->
<g id="node1" class="node"><title>start</title>
<ellipse fill="none" stroke="black" cx="217" cy="-656" rx="157.404" ry="18"/>
<text text-anchor="middle" x="217" y="-652.3" font-family="Helvetica Neue" font-size="14.00">Start of the Radio&#39;s interrupt routine</text>
</g>
<!-- is_end -->
<g id="node2" class="node"><title>is_end</title>
<polygon fill="none" stroke="black" points="217,-600 91,-562 217,-524 343,-562 217,-600"/>
<text text-anchor="middle" x="217" y="-565.8" font-family="Helvetica Neue" font-size="14.00">Is it a &#39;end</text>
<text text-anchor="middle" x="217" y="-550.8" font-family="Helvetica Neue" font-size="14.00">of packet&#39; event?</text>
</g>
<!-- start&#45;&gt;is_end -->
<g id="edge1" class="edge"><title>start&#45;&gt;is_end</title>
<path fill="none" stroke="black" d="M217,-637.696C217,-629.815 217,-620.063 217,-610.236"/>
<polygon fill="black" stroke="black" points="220.5,-610.043 217,-600.043 213.5,-610.043 220.5,-610.043"/>
</g>
<!-- is_rssiend -->
<g id="node3" class="node"><title>is_rssiend</title>
<polygon fill="none" stroke="black" points="212,-238 59,-200 212,-162 365,-200 212,-238"/>
<text text-anchor="middle" x="212" y="-203.8" font-family="Helvetica Neue" font-size="14.00">Is it a &#39;end of RSSI</text>
<text text-anchor="middle" x="212" y="-188.8" font-family="Helvetica Neue" font-size="14.00">measurement&#39; event?</text>
</g>
<!-- is_end&#45;&gt;is_rssiend -->
<g id="edge5" class="edge"><title>is_end&#45;&gt;is_rssiend</title>
<path fill="none" stroke="black" d="M202.198,-528.353C195.506,-511.834 188.355,-491.249 185,-472 171.232,-393.015 187.55,-299.764 200.138,-245.802"/>
<polygon fill="black" stroke="black" points="203.59,-246.412 202.516,-235.872 196.783,-244.782 203.59,-246.412"/>
<text text-anchor="middle" x="197" y="-366.3" font-family="Helvetica Neue" font-size="14.00">false</text>
</g>
<!-- check_ptr -->
<g id="node4" class="node"><title>check_ptr</title>
<polygon fill="none" stroke="black" points="337,-472 194,-434 337,-396 480,-434 337,-472"/>
<text text-anchor="middle" x="337" y="-437.8" font-family="Helvetica Neue" font-size="14.00">Is there still</text>
<text text-anchor="middle" x="337" y="-422.8" font-family="Helvetica Neue" font-size="14.00">space in the buffer?</text>
</g>
<!-- is_end&#45;&gt;check_ptr -->
<g id="edge2" class="edge"><title>is_end&#45;&gt;check_ptr</title>
<path fill="none" stroke="black" d="M244.53,-532.093C261.513,-514.262 283.461,-491.216 301.712,-472.052"/>
<polygon fill="black" stroke="black" points="304.403,-474.302 308.765,-464.647 299.334,-469.475 304.403,-474.302"/>
<text text-anchor="middle" x="296.5" y="-494.3" font-family="Helvetica Neue" font-size="14.00">true</text>
</g>
<!-- rssi -->
<g id="node6" class="node"><title>rssi</title>
<polygon fill="none" stroke="black" points="211.5,-110 0.5,-110 0.5,-74 211.5,-74 211.5,-110"/>
<text text-anchor="middle" x="106" y="-88.3" font-family="Helvetica Neue" font-size="14.00">Store the measured RSSI value</text>
</g>
<!-- is_rssiend&#45;&gt;rssi -->
<g id="edge6" class="edge"><title>is_rssiend&#45;&gt;rssi</title>
<path fill="none" stroke="black" d="M182.191,-169.191C165.772,-152.772 145.655,-132.655 130.216,-117.216"/>
<polygon fill="black" stroke="black" points="132.595,-114.645 123.049,-110.049 127.645,-119.595 132.595,-114.645"/>
<text text-anchor="middle" x="168.5" y="-132.3" font-family="Helvetica Neue" font-size="14.00">true</text>
</g>
<!-- return -->
<g id="node7" class="node"><title>return</title>
<ellipse fill="none" stroke="black" cx="206" cy="-18" rx="143.456" ry="18"/>
<text text-anchor="middle" x="206" y="-14.3" font-family="Helvetica Neue" font-size="14.00">Return from the interrupt routine</text>
</g>
<!-- is_rssiend&#45;&gt;return -->
<g id="edge7" class="edge"><title>is_rssiend&#45;&gt;return</title>
<path fill="none" stroke="black" d="M217.84,-163.331C221.076,-138.267 223.757,-103.992 220,-74 218.838,-64.7244 216.614,-54.7698 214.276,-45.9135"/>
<polygon fill="black" stroke="black" points="217.602,-44.8129 211.534,-36.1279 210.862,-46.7014 217.602,-44.8129"/>
<text text-anchor="middle" x="237" y="-88.3" font-family="Helvetica Neue" font-size="14.00">false</text>
</g>
<!-- check_ptr&#45;&gt;is_rssiend -->
<g id="edge4" class="edge"><title>check_ptr&#45;&gt;is_rssiend</title>
<path fill="none" stroke="black" d="M288.386,-408.752C263.704,-393.702 235.862,-371.89 221,-344 205.199,-314.347 203.566,-276.175 205.55,-246.729"/>
<polygon fill="black" stroke="black" points="209.043,-246.962 206.385,-236.706 202.067,-246.381 209.043,-246.962"/>
<text text-anchor="middle" x="236" y="-306.3" font-family="Helvetica Neue" font-size="14.00">false</text>
</g>
<!-- collect -->
<g id="node5" class="node"><title>collect</title>
<polygon fill="none" stroke="black" points="534,-344 260,-344 260,-276 534,-276 534,-344"/>
<text text-anchor="middle" x="397" y="-328.8" font-family="Helvetica Neue" font-size="14.00">1. Copy the contents of the received</text>
<text text-anchor="middle" x="397" y="-313.8" font-family="Helvetica Neue" font-size="14.00">packet, RSSI value, Channel number,</text>
<text text-anchor="middle" x="397" y="-298.8" font-family="Helvetica Neue" font-size="14.00">CRC status and time&#45;stamp to the buffer</text>
<text text-anchor="middle" x="397" y="-283.8" font-family="Helvetica Neue" font-size="14.00">2. Increment the received packet pointer</text>
</g>
<!-- check_ptr&#45;&gt;collect -->
<g id="edge3" class="edge"><title>check_ptr&#45;&gt;collect</title>
<path fill="none" stroke="black" d="M353.237,-399.985C360.307,-385.609 368.679,-368.585 376.198,-353.297"/>
<polygon fill="black" stroke="black" points="379.478,-354.559 380.75,-344.041 373.196,-351.47 379.478,-354.559"/>
<text text-anchor="middle" x="382.5" y="-366.3" font-family="Helvetica Neue" font-size="14.00">true</text>
</g>
<!-- collect&#45;&gt;is_rssiend -->
<g id="edge8" class="edge"><title>collect&#45;&gt;is_rssiend</title>
<path fill="none" stroke="black" d="M340.237,-275.862C316.409,-261.952 288.842,-245.859 265.388,-232.167"/>
<polygon fill="black" stroke="black" points="267.017,-229.065 256.616,-227.046 263.488,-235.11 267.017,-229.065"/>
</g>
<!-- rssi&#45;&gt;return -->
<g id="edge9" class="edge"><title>rssi&#45;&gt;return</title>
<path fill="none" stroke="black" d="M129.699,-73.937C143.024,-64.3426 159.834,-52.2396 174.282,-41.8371"/>
<polygon fill="black" stroke="black" points="176.401,-44.624 182.472,-35.9405 172.311,-38.9432 176.401,-44.624"/>
</g>
</g>
</svg>
