<?xml version="1.0" encoding="UTF-8" standalone="no"?>
<!DOCTYPE svg PUBLIC "-//W3C//DTD SVG 1.1//EN"
 "http://www.w3.org/Graphics/SVG/1.1/DTD/svg11.dtd">
<!-- Generated by graphviz version 2.36.0 (20140111.2315)
 -->
<!-- Title: radio_isr Pages: 1 -->
<svg width="542pt" height="602pt"
 viewBox="0.00 0.00 542.00 602.00" xmlns="http://www.w3.org/2000/svg" xmlns:xlink="http://www.w3.org/1999/xlink">
<g id="graph0" class="graph" transform="scale(1 1) rotate(0) translate(4 598)">
<title>radio_isr</title>
<polygon fill="white" stroke="none" points="-4,4 -4,-598 538,-598 538,4 -4,4"/>
<!-- start -->
<g id="node1" class="node"><title>start</title>
<ellipse fill="none" stroke="black" cx="217" cy="-576" rx="157.404" ry="18"/>
<text text-anchor="middle" x="217" y="-572.3" font-family="Helvetica Neue" font-size="14.00">Start of the Radio&#39;s interrupt routine</text>
</g>
<!-- is_end -->
<g id="node2" class="node"><title>is_end</title>
<polygon fill="none" stroke="black" points="217,-520 61.1143,-502 217,-484 372.886,-502 217,-520"/>
<text text-anchor="middle" x="217" y="-498.3" font-family="Helvetica Neue" font-size="14.00">Is it a packet end event?</text>
</g>
<!-- start&#45;&gt;is_end -->
<g id="edge1" class="edge"><title>start&#45;&gt;is_end</title>
<path fill="none" stroke="black" d="M217,-557.937C217,-549.807 217,-539.876 217,-530.705"/>
<polygon fill="black" stroke="black" points="220.5,-530.441 217,-520.441 213.5,-530.441 220.5,-530.441"/>
</g>
<!-- is_rssiend -->
<g id="node3" class="node"><title>is_rssiend</title>
<polygon fill="none" stroke="black" points="212,-198 12.8143,-180 212,-162 411.186,-180 212,-198"/>
<text text-anchor="middle" x="212" y="-176.3" font-family="Helvetica Neue" font-size="14.00">Is it a RSSI measure end event?</text>
</g>
<!-- is_end&#45;&gt;is_rssiend -->
<g id="edge5" class="edge"><title>is_end&#45;&gt;is_rssiend</title>
<path fill="none" stroke="black" d="M207.123,-484.984C199.383,-471.435 189.238,-451.213 185,-432 167.219,-351.397 190.212,-253.546 203.61,-207.447"/>
<polygon fill="black" stroke="black" points="207.029,-208.232 206.543,-197.649 200.322,-206.225 207.029,-208.232"/>
<text text-anchor="middle" x="196" y="-326.3" font-family="Helvetica Neue" font-size="14.00">false</text>
</g>
<!-- check_ptr -->
<g id="node4" class="node"><title>check_ptr</title>
<polygon fill="none" stroke="black" points="337,-432 194,-394 337,-356 480,-394 337,-432"/>
<text text-anchor="middle" x="337" y="-397.8" font-family="Helvetica Neue" font-size="14.00">Is there still</text>
<text text-anchor="middle" x="337" y="-382.8" font-family="Helvetica Neue" font-size="14.00">space in the buffer?</text>
</g>
<!-- is_end&#45;&gt;check_ptr -->
<g id="edge2" class="edge"><title>is_end&#45;&gt;check_ptr</title>
<path fill="none" stroke="black" d="M234.193,-485.813C250.47,-471.435 275.516,-449.311 296.812,-430.5"/>
<polygon fill="black" stroke="black" points="299.287,-432.983 304.464,-423.74 294.653,-427.737 299.287,-432.983"/>
<text text-anchor="middle" x="285.5" y="-454.3" font-family="Helvetica Neue" font-size="14.00">true</text>
</g>
<!-- rssi -->
<g id="node6" class="node"><title>rssi</title>
<polygon fill="none" stroke="black" points="211.5,-110 0.5,-110 0.5,-74 211.5,-74 211.5,-110"/>
<text text-anchor="middle" x="106" y="-88.3" font-family="Helvetica Neue" font-size="14.00">Store the measured RSSI value</text>
</g>
<!-- is_rssiend&#45;&gt;rssi -->
<g id="edge6" class="edge"><title>is_rssiend&#45;&gt;rssi</title>
<path fill="none" stroke="black" d="M193.049,-163.625C176.865,-150.494 153.334,-131.403 134.817,-116.38"/>
<polygon fill="black" stroke="black" points="136.937,-113.593 126.966,-110.01 132.526,-119.029 136.937,-113.593"/>
<text text-anchor="middle" x="181.5" y="-132.3" font-family="Helvetica Neue" font-size="14.00">true</text>
</g>
<!-- return -->
<g id="node7" class="node"><title>return</title>
<ellipse fill="none" stroke="black" cx="206" cy="-18" rx="143.456" ry="18"/>
<text text-anchor="middle" x="206" y="-14.3" font-family="Helvetica Neue" font-size="14.00">Return from the interrupt routine</text>
</g>
<!-- is_rssiend&#45;&gt;return -->
<g id="edge7" class="edge"><title>is_rssiend&#45;&gt;return</title>
<path fill="none" stroke="black" d="M215.345,-162.219C219.011,-141.448 223.886,-105.02 220,-74 218.838,-64.7244 216.614,-54.7698 214.276,-45.9135"/>
<polygon fill="black" stroke="black" points="217.602,-44.8129 211.534,-36.1279 210.862,-46.7014 217.602,-44.8129"/>
<text text-anchor="middle" x="237" y="-88.3" font-family="Helvetica Neue" font-size="14.00">false</text>
</g>
<!-- check_ptr&#45;&gt;is_rssiend -->
<g id="edge4" class="edge"><title>check_ptr&#45;&gt;is_rssiend</title>
<path fill="none" stroke="black" d="M288.498,-368.692C263.85,-353.624 236.004,-331.814 221,-304 204.918,-274.188 205.276,-234.249 207.896,-208.084"/>
<polygon fill="black" stroke="black" points="211.376,-208.458 209.071,-198.117 204.424,-207.638 211.376,-208.458"/>
<text text-anchor="middle" x="236" y="-266.3" font-family="Helvetica Neue" font-size="14.00">false</text>
</g>
<!-- collect -->
<g id="node5" class="node"><title>collect</title>
<polygon fill="none" stroke="black" points="534,-304 260,-304 260,-236 534,-236 534,-304"/>
<text text-anchor="middle" x="397" y="-288.8" font-family="Helvetica Neue" font-size="14.00">1. Copy the contents of the received</text>
<text text-anchor="middle" x="397" y="-273.8" font-family="Helvetica Neue" font-size="14.00">packet, RSSI value, Channel number,</text>
<text text-anchor="middle" x="397" y="-258.8" font-family="Helvetica Neue" font-size="14.00">CRC status and time&#45;stamp to the buffer</text>
<text text-anchor="middle" x="397" y="-243.8" font-family="Helvetica Neue" font-size="14.00">2. Increment the received packet pointer</text>
</g>
<!-- check_ptr&#45;&gt;collect -->
<g id="edge3" class="edge"><title>check_ptr&#45;&gt;collect</title>
<path fill="none" stroke="black" d="M353.237,-359.985C360.307,-345.609 368.679,-328.585 376.198,-313.297"/>
<polygon fill="black" stroke="black" points="379.478,-314.559 380.75,-304.041 373.196,-311.47 379.478,-314.559"/>
<text text-anchor="middle" x="382.5" y="-326.3" font-family="Helvetica Neue" font-size="14.00">true</text>
</g>
<!-- collect&#45;&gt;is_rssiend -->
<g id="edge8" class="edge"><title>collect&#45;&gt;is_rssiend</title>
<path fill="none" stroke="black" d="M327.586,-235.982C301.749,-223.692 273.345,-210.18 251.16,-199.627"/>
<polygon fill="black" stroke="black" points="252.592,-196.433 242.058,-195.298 249.585,-202.754 252.592,-196.433"/>
</g>
<!-- rssi&#45;&gt;return -->
<g id="edge9" class="edge"><title>rssi&#45;&gt;return</title>
<path fill="none" stroke="black" d="M129.699,-73.937C143.024,-64.3426 159.834,-52.2396 174.282,-41.8371"/>
<polygon fill="black" stroke="black" points="176.401,-44.624 182.472,-35.9405 172.311,-38.9432 176.401,-44.624"/>
</g>
</g>
</svg>
