<?xml version="1.0" encoding="UTF-8" standalone="no"?>
<!DOCTYPE svg PUBLIC "-//W3C//DTD SVG 1.1//EN"
 "http://www.w3.org/Graphics/SVG/1.1/DTD/svg11.dtd">
<!-- Generated by graphviz version 2.36.0 (20140111.2315)
 -->
<!-- Title: main_flow Pages: 1 -->
<svg width="276pt" height="252pt"
 viewBox="0.00 0.00 276.00 252.00" xmlns="http://www.w3.org/2000/svg" xmlns:xlink="http://www.w3.org/1999/xlink">
<g id="graph0" class="graph" transform="scale(1 1) rotate(0) translate(4 248)">
<title>main_flow</title>
<polygon fill="white" stroke="none" points="-4,4 -4,-248 272,-248 272,4 -4,4"/>
<!-- Sb -->
<g id="node1" class="node"><title>Sb</title>
<ellipse fill="none" stroke="black" cx="134" cy="-122" rx="30.25" ry="30.5"/>
<text text-anchor="middle" x="134" y="-119.2" font-family="Helvetica Neue" font-size="11.00">Standby</text>
</g>
<!-- I -->
<g id="node4" class="node"><title>I</title>
<ellipse fill="none" stroke="black" cx="238" cy="-122" rx="30.25" ry="30.5"/>
<text text-anchor="middle" x="238" y="-119.2" font-family="Helvetica Neue" font-size="11.00">Initiating</text>
</g>
<!-- Sb&#45;&gt;I -->
<g id="edge3" class="edge"><title>Sb&#45;&gt;I</title>
<path fill="none" stroke="black" d="M174.567,-122C182.212,-122 189.857,-122 197.503,-122"/>
<polygon fill="black" stroke="black" points="174.469,-118.5 164.469,-122 174.469,-125.5 174.469,-118.5"/>
<polygon fill="black" stroke="black" points="197.554,-125.5 207.553,-122 197.553,-118.5 197.554,-125.5"/>
</g>
<!-- A -->
<g id="node2" class="node"><title>A</title>
<ellipse fill="none" stroke="black" cx="30" cy="-122" rx="30.25" ry="30.5"/>
<text text-anchor="middle" x="30" y="-119.2" font-family="Helvetica Neue" font-size="11.00">Advertising</text>
</g>
<!-- A&#45;&gt;Sb -->
<g id="edge2" class="edge"><title>A&#45;&gt;Sb</title>
<path fill="none" stroke="black" d="M70.5667,-122C78.2121,-122 85.8575,-122 93.5028,-122"/>
<polygon fill="black" stroke="black" points="70.4688,-118.5 60.4688,-122 70.4687,-125.5 70.4688,-118.5"/>
<polygon fill="black" stroke="black" points="93.5535,-125.5 103.553,-122 93.5534,-118.5 93.5535,-125.5"/>
</g>
<!-- C -->
<g id="node5" class="node"><title>C</title>
<ellipse fill="none" stroke="black" cx="134" cy="-31" rx="30.25" ry="30.5"/>
<text text-anchor="middle" x="134" y="-28.2" font-family="Helvetica Neue" font-size="11.00">Connection</text>
</g>
<!-- A&#45;&gt;C -->
<g id="edge4" class="edge"><title>A&#45;&gt;C</title>
<path fill="none" stroke="black" d="M52.5665,-101.688C67.455,-88.9472 87.1435,-72.0984 103.432,-58.1595"/>
<polygon fill="black" stroke="black" points="105.796,-60.7425 111.118,-51.5813 101.245,-55.424 105.796,-60.7425"/>
<text text-anchor="middle" x="61.1208" y="-55.2664" font-family="Helvetica Neue" font-size="11.00">To become</text>
<text text-anchor="middle" x="61.1208" y="-43.2664" font-family="Helvetica Neue" font-size="11.00">a slave</text>
</g>
<!-- S -->
<g id="node3" class="node"><title>S</title>
<ellipse fill="none" stroke="black" cx="134" cy="-213" rx="30.25" ry="30.5"/>
<text text-anchor="middle" x="134" y="-210.2" font-family="Helvetica Neue" font-size="11.00">Scanning</text>
</g>
<!-- S&#45;&gt;Sb -->
<g id="edge1" class="edge"><title>S&#45;&gt;Sb</title>
<path fill="none" stroke="black" d="M134,-172.171C134,-168.968 134,-165.732 134,-162.531"/>
<polygon fill="black" stroke="black" points="130.5,-172.364 134,-182.364 137.5,-172.364 130.5,-172.364"/>
<polygon fill="black" stroke="black" points="137.5,-162.506 134,-152.506 130.5,-162.506 137.5,-162.506"/>
</g>
<!-- I&#45;&gt;C -->
<g id="edge5" class="edge"><title>I&#45;&gt;C</title>
<path fill="none" stroke="black" d="M215.434,-101.688C200.545,-88.9472 180.857,-72.0984 164.568,-58.1595"/>
<polygon fill="black" stroke="black" points="166.755,-55.424 156.882,-51.5813 162.204,-60.7425 166.755,-55.424"/>
<text text-anchor="middle" x="206.879" y="-55.2664" font-family="Helvetica Neue" font-size="11.00">To become</text>
<text text-anchor="middle" x="206.879" y="-43.2664" font-family="Helvetica Neue" font-size="11.00">a master</text>
</g>
<!-- C&#45;&gt;Sb -->
<g id="edge6" class="edge"><title>C&#45;&gt;Sb</title>
<path fill="none" stroke="black" d="M134,-61.5063C134,-67.8051 134,-74.5578 134,-81.1714"/>
<polygon fill="black" stroke="black" points="130.5,-81.3643 134,-91.3643 137.5,-81.3643 130.5,-81.3643"/>
</g>
</g>
</svg>
