<?xml version="1.0" encoding="UTF-8" standalone="no"?>
<!DOCTYPE svg PUBLIC "-//W3C//DTD SVG 1.1//EN"
 "http://www.w3.org/Graphics/SVG/1.1/DTD/svg11.dtd">
<!-- Generated by graphviz version 2.36.0 (20140111.2315)
 -->
<!-- Title: main_flow Pages: 1 -->
<svg width="248pt" height="266pt"
 viewBox="0.00 0.00 248.00 266.00" xmlns="http://www.w3.org/2000/svg" xmlns:xlink="http://www.w3.org/1999/xlink">
<g id="graph0" class="graph" transform="scale(1 1) rotate(0) translate(4 262)">
<title>main_flow</title>
<polygon fill="white" stroke="none" points="-4,4 -4,-262 244,-262 244,4 -4,4"/>
<!-- Sb -->
<g id="node1" class="node"><title>Sb</title>
<ellipse fill="none" stroke="black" cx="120" cy="-129" rx="30.25" ry="30.5"/>
<text text-anchor="middle" x="120" y="-126.2" font-family="Helvetica Neue" font-size="11.00">Standby</text>
</g>
<!-- I -->
<g id="node4" class="node"><title>I</title>
<ellipse fill="none" stroke="black" cx="210" cy="-129" rx="30.25" ry="30.5"/>
<text text-anchor="middle" x="210" y="-126.2" font-family="Helvetica Neue" font-size="11.00">Initiating</text>
</g>
<!-- Sb&#45;&gt;I -->
<g id="edge3" class="edge"><title>Sb&#45;&gt;I</title>
<path fill="none" stroke="black" d="M160.928,-129C163.713,-129 166.498,-129 169.282,-129"/>
<polygon fill="black" stroke="black" points="160.586,-125.5 150.586,-129 160.586,-132.5 160.586,-125.5"/>
<polygon fill="black" stroke="black" points="169.365,-132.5 179.365,-129 169.365,-125.5 169.365,-132.5"/>
</g>
<!-- A -->
<g id="node2" class="node"><title>A</title>
<ellipse fill="none" stroke="black" cx="30" cy="-129" rx="30.25" ry="30.5"/>
<text text-anchor="middle" x="30" y="-126.2" font-family="Helvetica Neue" font-size="11.00">Advertising</text>
</g>
<!-- A&#45;&gt;Sb -->
<g id="edge2" class="edge"><title>A&#45;&gt;Sb</title>
<path fill="none" stroke="black" d="M70.9283,-129C73.7129,-129 76.4976,-129 79.2822,-129"/>
<polygon fill="black" stroke="black" points="70.586,-125.5 60.5859,-129 70.5859,-132.5 70.586,-125.5"/>
<polygon fill="black" stroke="black" points="79.3647,-132.5 89.3646,-129 79.3646,-125.5 79.3647,-132.5"/>
</g>
<!-- C -->
<g id="node5" class="node"><title>C</title>
<ellipse fill="none" stroke="black" cx="120" cy="-31" rx="30.25" ry="30.5"/>
<text text-anchor="middle" x="120" y="-28.2" font-family="Helvetica Neue" font-size="11.00">Connection</text>
</g>
<!-- A&#45;&gt;C -->
<g id="edge4" class="edge"><title>A&#45;&gt;C</title>
<path fill="none" stroke="black" d="M50.4224,-106.216C62.9651,-92.8372 79.1825,-75.5386 92.8047,-61.0083"/>
<polygon fill="black" stroke="black" points="95.3724,-63.3869 99.6584,-53.6977 90.2656,-58.5993 95.3724,-63.3869"/>
<text text-anchor="middle" x="50.0151" y="-62.8591" font-family="Helvetica Neue" font-size="11.00">To become</text>
<text text-anchor="middle" x="50.0151" y="-50.8591" font-family="Helvetica Neue" font-size="11.00">a slave</text>
</g>
<!-- S -->
<g id="node3" class="node"><title>S</title>
<ellipse fill="none" stroke="black" cx="120" cy="-227" rx="30.25" ry="30.5"/>
<text text-anchor="middle" x="120" y="-224.2" font-family="Helvetica Neue" font-size="11.00">Scanning</text>
</g>
<!-- S&#45;&gt;Sb -->
<g id="edge1" class="edge"><title>S&#45;&gt;Sb</title>
<path fill="none" stroke="black" d="M120,-186.228C120,-180.809 120,-175.245 120,-169.825"/>
<polygon fill="black" stroke="black" points="116.5,-186.413 120,-196.414 123.5,-186.414 116.5,-186.413"/>
<polygon fill="black" stroke="black" points="123.5,-169.654 120,-159.654 116.5,-169.654 123.5,-169.654"/>
</g>
<!-- I&#45;&gt;C -->
<g id="edge5" class="edge"><title>I&#45;&gt;C</title>
<path fill="none" stroke="black" d="M189.578,-106.216C177.035,-92.8372 160.817,-75.5386 147.195,-61.0083"/>
<polygon fill="black" stroke="black" points="149.734,-58.5993 140.342,-53.6977 144.628,-63.3869 149.734,-58.5993"/>
<text text-anchor="middle" x="189.985" y="-62.8591" font-family="Helvetica Neue" font-size="11.00">To become</text>
<text text-anchor="middle" x="189.985" y="-50.8591" font-family="Helvetica Neue" font-size="11.00">a master</text>
</g>
</g>
</svg>
