<?xml version="1.0" encoding="UTF-8" standalone="no"?>
<svg
   xmlns:dc="http://purl.org/dc/elements/1.1/"
   xmlns:cc="http://creativecommons.org/ns#"
   xmlns:rdf="http://www.w3.org/1999/02/22-rdf-syntax-ns#"
   xmlns:svg="http://www.w3.org/2000/svg"
   xmlns="http://www.w3.org/2000/svg"
   xmlns:sodipodi="http://sodipodi.sourceforge.net/DTD/sodipodi-0.dtd"
   xmlns:inkscape="http://www.inkscape.org/namespaces/inkscape"
   width="856.27722"
   height="446.55441"
   viewBox="0 0 24166.046 12602.758"
   version="1.1"
   xml:space="preserve"
   id="svg2"
   inkscape:version="0.48.4 r9939"
   sodipodi:docname="RR-l-ec.svg"
   style="stroke-width:28.22200012;stroke-linejoin:round"><metadata
     id="metadata562"><rdf:RDF><cc:Work
         rdf:about=""><dc:format>image/svg+xml</dc:format><dc:type
           rdf:resource="http://purl.org/dc/dcmitype/StillImage" /></cc:Work></rdf:RDF></metadata><defs
     id="defs560" /><sodipodi:namedview
     pagecolor="#ffffff"
     bordercolor="#666666"
     borderopacity="1"
     objecttolerance="10"
     gridtolerance="10"
     guidetolerance="10"
     inkscape:pageopacity="0"
     inkscape:pageshadow="2"
     inkscape:window-width="1629"
     inkscape:window-height="1026"
     id="namedview558"
     showgrid="false"
     fit-margin-top="0"
     fit-margin-left="0"
     fit-margin-right="0"
     fit-margin-bottom="0"
     inkscape:zoom="1.2533671"
     inkscape:cx="344.8203"
     inkscape:cy="296.95006"
     inkscape:window-x="51"
     inkscape:window-y="24"
     inkscape:window-maximized="1"
     inkscape:current-layer="svg2"><inkscape:grid
       type="xygrid"
       id="grid4361"
       empspacing="5"
       visible="true"
       enabled="true"
       snapvisiblegridlinesonly="true" /></sodipodi:namedview><path
     d="m 12554.525,11406.479 -11313.0004,0 0,-11278.99951 22626.0004,0 0,11278.99951 -11313,0 z"
     id="path6"
     inkscape:connector-curvature="0"
     style="fill:none;stroke:#b3b3b3;stroke-linejoin:round" /><path
     d="m 1241.5246,126.47949 0,11278.99951"
     id="path8"
     inkscape:connector-curvature="0"
     style="fill:none;stroke:#b3b3b3;stroke-linejoin:round" /><path
     d="m 4069.5246,126.47949 0,11278.99951"
     id="path10"
     inkscape:connector-curvature="0"
     style="fill:none;stroke:#b3b3b3;stroke-linejoin:round" /><path
     d="m 6897.5246,126.47949 0,11278.99951"
     id="path12"
     inkscape:connector-curvature="0"
     style="fill:none;stroke:#b3b3b3;stroke-linejoin:round" /><path
     d="m 9726.5246,126.47949 0,11278.99951"
     id="path14"
     inkscape:connector-curvature="0"
     style="fill:none;stroke:#b3b3b3;stroke-linejoin:round" /><path
     d="m 12553.525,126.47949 0,11278.99951"
     id="path16"
     inkscape:connector-curvature="0"
     style="fill:none;stroke:#b3b3b3;stroke-linejoin:round" /><path
     d="m 15381.525,126.47949 0,11278.99951"
     id="path18"
     inkscape:connector-curvature="0"
     style="fill:none;stroke:#b3b3b3;stroke-linejoin:round" /><path
     d="m 18210.525,126.47949 0,11278.99951"
     id="path20"
     inkscape:connector-curvature="0"
     style="fill:none;stroke:#b3b3b3;stroke-linejoin:round" /><path
     d="m 21038.525,126.47949 0,11278.99951"
     id="path22"
     inkscape:connector-curvature="0"
     style="fill:none;stroke:#b3b3b3;stroke-linejoin:round" /><path
     d="m 23867.525,126.47949 0,11278.99951"
     id="path24"
     inkscape:connector-curvature="0"
     style="fill:none;stroke:#b3b3b3;stroke-linejoin:round" /><path
     d="m 1948.5246,126.47949 0,11278.99951"
     id="path26"
     inkscape:connector-curvature="0"
     style="fill:none;stroke:#b3b3b3;stroke-linejoin:round" /><path
     d="m 2655.5246,126.47949 0,11278.99951"
     id="path28"
     inkscape:connector-curvature="0"
     style="fill:none;stroke:#b3b3b3;stroke-linejoin:round" /><path
     d="m 3362.5246,126.47949 0,11278.99951"
     id="path30"
     inkscape:connector-curvature="0"
     style="fill:none;stroke:#b3b3b3;stroke-linejoin:round" /><path
     d="m 4776.5246,126.47949 0,11278.99951"
     id="path32"
     inkscape:connector-curvature="0"
     style="fill:none;stroke:#b3b3b3;stroke-linejoin:round" /><path
     d="m 5483.5246,126.47949 0,11278.99951"
     id="path34"
     inkscape:connector-curvature="0"
     style="fill:none;stroke:#b3b3b3;stroke-linejoin:round" /><path
     d="m 6190.5246,126.47949 0,11278.99951"
     id="path36"
     inkscape:connector-curvature="0"
     style="fill:none;stroke:#b3b3b3;stroke-linejoin:round" /><path
     d="m 7604.5246,126.47949 0,11278.99951"
     id="path38"
     inkscape:connector-curvature="0"
     style="fill:none;stroke:#b3b3b3;stroke-linejoin:round" /><path
     d="m 8311.5246,126.47949 0,11278.99951"
     id="path40"
     inkscape:connector-curvature="0"
     style="fill:none;stroke:#b3b3b3;stroke-linejoin:round" /><path
     d="m 9019.5246,126.47949 0,11278.99951"
     id="path42"
     inkscape:connector-curvature="0"
     style="fill:none;stroke:#b3b3b3;stroke-linejoin:round" /><path
     d="m 10433.525,126.47949 0,11278.99951"
     id="path44"
     inkscape:connector-curvature="0"
     style="fill:none;stroke:#b3b3b3;stroke-linejoin:round" /><path
     d="m 11140.525,126.47949 0,11278.99951"
     id="path46"
     inkscape:connector-curvature="0"
     style="fill:none;stroke:#b3b3b3;stroke-linejoin:round" /><path
     d="m 11847.525,126.47949 0,11278.99951"
     id="path48"
     inkscape:connector-curvature="0"
     style="fill:none;stroke:#b3b3b3;stroke-linejoin:round" /><path
     d="m 13260.525,126.47949 0,11278.99951"
     id="path50"
     inkscape:connector-curvature="0"
     style="fill:none;stroke:#b3b3b3;stroke-linejoin:round" /><path
     d="m 13967.525,126.47949 0,11278.99951"
     id="path52"
     inkscape:connector-curvature="0"
     style="fill:none;stroke:#b3b3b3;stroke-linejoin:round" /><path
     d="m 14674.525,126.47949 0,11278.99951"
     id="path54"
     inkscape:connector-curvature="0"
     style="fill:none;stroke:#b3b3b3;stroke-linejoin:round" /><path
     d="m 16088.525,126.47949 0,11278.99951"
     id="path56"
     inkscape:connector-curvature="0"
     style="fill:none;stroke:#b3b3b3;stroke-linejoin:round" /><path
     d="m 16796.525,126.47949 0,11278.99951"
     id="path58"
     inkscape:connector-curvature="0"
     style="fill:none;stroke:#b3b3b3;stroke-linejoin:round" /><path
     d="m 17503.525,126.47949 0,11278.99951"
     id="path60"
     inkscape:connector-curvature="0"
     style="fill:none;stroke:#b3b3b3;stroke-linejoin:round" /><path
     d="m 18917.525,126.47949 0,11278.99951"
     id="path62"
     inkscape:connector-curvature="0"
     style="fill:none;stroke:#b3b3b3;stroke-linejoin:round" /><path
     d="m 19624.525,126.47949 0,11278.99951"
     id="path64"
     inkscape:connector-curvature="0"
     style="fill:none;stroke:#b3b3b3;stroke-linejoin:round" /><path
     d="m 20331.525,126.47949 0,11278.99951"
     id="path66"
     inkscape:connector-curvature="0"
     style="fill:none;stroke:#b3b3b3;stroke-linejoin:round" /><path
     d="m 21745.525,126.47949 0,11278.99951"
     id="path68"
     inkscape:connector-curvature="0"
     style="fill:none;stroke:#b3b3b3;stroke-linejoin:round" /><path
     d="m 22452.525,126.47949 0,11278.99951"
     id="path70"
     inkscape:connector-curvature="0"
     style="fill:none;stroke:#b3b3b3;stroke-linejoin:round" /><path
     d="m 23159.525,126.47949 0,11278.99951"
     id="path72"
     inkscape:connector-curvature="0"
     style="fill:none;stroke:#b3b3b3;stroke-linejoin:round" /><path
     d="m 23867.525,11405.479 -22626.0004,0"
     id="path74"
     inkscape:connector-curvature="0"
     style="fill:none;stroke:#b3b3b3;stroke-linejoin:round" /><path
     d="m 23867.525,9525.4795 -22626.0004,0"
     id="path76"
     inkscape:connector-curvature="0"
     style="fill:none;stroke:#b3b3b3;stroke-linejoin:round" /><path
     d="m 23867.525,7645.4795 -22626.0004,0"
     id="path78"
     inkscape:connector-curvature="0"
     style="fill:none;stroke:#b3b3b3;stroke-linejoin:round" /><path
     d="m 23867.525,5766.4795 -22626.0004,0"
     id="path80"
     inkscape:connector-curvature="0"
     style="fill:none;stroke:#b3b3b3;stroke-linejoin:round" /><path
     d="m 23867.525,3886.4795 -22626.0004,0"
     id="path82"
     inkscape:connector-curvature="0"
     style="fill:none;stroke:#b3b3b3;stroke-linejoin:round" /><path
     d="m 23867.525,2006.4795 -22626.0004,0"
     id="path84"
     inkscape:connector-curvature="0"
     style="fill:none;stroke:#b3b3b3;stroke-linejoin:round" /><path
     d="m 23867.525,126.47949 -22626.0004,0"
     id="path86"
     inkscape:connector-curvature="0"
     style="fill:none;stroke:#b3b3b3;stroke-linejoin:round" /><path
     d="m 1241.5246,11555.479 0,-150"
     id="path88"
     inkscape:connector-curvature="0"
     style="fill:none;stroke:#b3b3b3;stroke-linejoin:round" /><path
     d="m 1241.5246,11555.479 0,-150"
     id="path90"
     inkscape:connector-curvature="0"
     style="fill:none;stroke:#b3b3b3;stroke-linejoin:round" /><path
     d="m 4069.5246,11555.479 0,-150"
     id="path92"
     inkscape:connector-curvature="0"
     style="fill:none;stroke:#b3b3b3;stroke-linejoin:round" /><path
     d="m 4069.5246,11555.479 0,-150"
     id="path94"
     inkscape:connector-curvature="0"
     style="fill:none;stroke:#b3b3b3;stroke-linejoin:round" /><path
     d="m 6897.5246,11555.479 0,-150"
     id="path96"
     inkscape:connector-curvature="0"
     style="fill:none;stroke:#b3b3b3;stroke-linejoin:round" /><path
     d="m 6897.5246,11555.479 0,-150"
     id="path98"
     inkscape:connector-curvature="0"
     style="fill:none;stroke:#b3b3b3;stroke-linejoin:round" /><path
     d="m 9726.5246,11555.479 0,-150"
     id="path100"
     inkscape:connector-curvature="0"
     style="fill:none;stroke:#b3b3b3;stroke-linejoin:round" /><path
     d="m 9726.5246,11555.479 0,-150"
     id="path102"
     inkscape:connector-curvature="0"
     style="fill:none;stroke:#b3b3b3;stroke-linejoin:round" /><path
     d="m 12553.525,11555.479 0,-150"
     id="path104"
     inkscape:connector-curvature="0"
     style="fill:none;stroke:#b3b3b3;stroke-linejoin:round" /><path
     d="m 12553.525,11555.479 0,-150"
     id="path106"
     inkscape:connector-curvature="0"
     style="fill:none;stroke:#b3b3b3;stroke-linejoin:round" /><path
     d="m 15381.525,11555.479 0,-150"
     id="path108"
     inkscape:connector-curvature="0"
     style="fill:none;stroke:#b3b3b3;stroke-linejoin:round" /><path
     d="m 15381.525,11555.479 0,-150"
     id="path110"
     inkscape:connector-curvature="0"
     style="fill:none;stroke:#b3b3b3;stroke-linejoin:round" /><path
     d="m 18210.525,11555.479 0,-150"
     id="path112"
     inkscape:connector-curvature="0"
     style="fill:none;stroke:#b3b3b3;stroke-linejoin:round" /><path
     d="m 18210.525,11555.479 0,-150"
     id="path114"
     inkscape:connector-curvature="0"
     style="fill:none;stroke:#b3b3b3;stroke-linejoin:round" /><path
     d="m 21038.525,11555.479 0,-150"
     id="path116"
     inkscape:connector-curvature="0"
     style="fill:none;stroke:#b3b3b3;stroke-linejoin:round" /><path
     d="m 21038.525,11555.479 0,-150"
     id="path118"
     inkscape:connector-curvature="0"
     style="fill:none;stroke:#b3b3b3;stroke-linejoin:round" /><path
     d="m 23867.525,11555.479 0,-150"
     id="path120"
     inkscape:connector-curvature="0"
     style="fill:none;stroke:#b3b3b3;stroke-linejoin:round" /><path
     d="m 23867.525,11555.479 0,-150"
     id="path122"
     inkscape:connector-curvature="0"
     style="fill:none;stroke:#b3b3b3;stroke-linejoin:round" /><path
     d="m 1948.5246,11517.479 0,-112"
     id="path124"
     inkscape:connector-curvature="0"
     style="fill:none;stroke:#b3b3b3;stroke-linejoin:round" /><path
     d="m 1948.5246,11517.479 0,-112"
     id="path126"
     inkscape:connector-curvature="0"
     style="fill:none;stroke:#b3b3b3;stroke-linejoin:round" /><path
     d="m 2655.5246,11517.479 0,-112"
     id="path128"
     inkscape:connector-curvature="0"
     style="fill:none;stroke:#b3b3b3;stroke-linejoin:round" /><path
     d="m 2655.5246,11517.479 0,-112"
     id="path130"
     inkscape:connector-curvature="0"
     style="fill:none;stroke:#b3b3b3;stroke-linejoin:round" /><path
     d="m 3362.5246,11517.479 0,-112"
     id="path132"
     inkscape:connector-curvature="0"
     style="fill:none;stroke:#b3b3b3;stroke-linejoin:round" /><path
     d="m 3362.5246,11517.479 0,-112"
     id="path134"
     inkscape:connector-curvature="0"
     style="fill:none;stroke:#b3b3b3;stroke-linejoin:round" /><path
     d="m 4776.5246,11517.479 0,-112"
     id="path136"
     inkscape:connector-curvature="0"
     style="fill:none;stroke:#b3b3b3;stroke-linejoin:round" /><path
     d="m 4776.5246,11517.479 0,-112"
     id="path138"
     inkscape:connector-curvature="0"
     style="fill:none;stroke:#b3b3b3;stroke-linejoin:round" /><path
     d="m 5483.5246,11517.479 0,-112"
     id="path140"
     inkscape:connector-curvature="0"
     style="fill:none;stroke:#b3b3b3;stroke-linejoin:round" /><path
     d="m 5483.5246,11517.479 0,-112"
     id="path142"
     inkscape:connector-curvature="0"
     style="fill:none;stroke:#b3b3b3;stroke-linejoin:round" /><path
     d="m 6190.5246,11517.479 0,-112"
     id="path144"
     inkscape:connector-curvature="0"
     style="fill:none;stroke:#b3b3b3;stroke-linejoin:round" /><path
     d="m 6190.5246,11517.479 0,-112"
     id="path146"
     inkscape:connector-curvature="0"
     style="fill:none;stroke:#b3b3b3;stroke-linejoin:round" /><path
     d="m 7604.5246,11517.479 0,-112"
     id="path148"
     inkscape:connector-curvature="0"
     style="fill:none;stroke:#b3b3b3;stroke-linejoin:round" /><path
     d="m 7604.5246,11517.479 0,-112"
     id="path150"
     inkscape:connector-curvature="0"
     style="fill:none;stroke:#b3b3b3;stroke-linejoin:round" /><path
     d="m 8311.5246,11517.479 0,-112"
     id="path152"
     inkscape:connector-curvature="0"
     style="fill:none;stroke:#b3b3b3;stroke-linejoin:round" /><path
     d="m 8311.5246,11517.479 0,-112"
     id="path154"
     inkscape:connector-curvature="0"
     style="fill:none;stroke:#b3b3b3;stroke-linejoin:round" /><path
     d="m 9019.5246,11517.479 0,-112"
     id="path156"
     inkscape:connector-curvature="0"
     style="fill:none;stroke:#b3b3b3;stroke-linejoin:round" /><path
     d="m 9019.5246,11517.479 0,-112"
     id="path158"
     inkscape:connector-curvature="0"
     style="fill:none;stroke:#b3b3b3;stroke-linejoin:round" /><path
     d="m 10433.525,11517.479 0,-112"
     id="path160"
     inkscape:connector-curvature="0"
     style="fill:none;stroke:#b3b3b3;stroke-linejoin:round" /><path
     d="m 10433.525,11517.479 0,-112"
     id="path162"
     inkscape:connector-curvature="0"
     style="fill:none;stroke:#b3b3b3;stroke-linejoin:round" /><path
     d="m 11140.525,11517.479 0,-112"
     id="path164"
     inkscape:connector-curvature="0"
     style="fill:none;stroke:#b3b3b3;stroke-linejoin:round" /><path
     d="m 11140.525,11517.479 0,-112"
     id="path166"
     inkscape:connector-curvature="0"
     style="fill:none;stroke:#b3b3b3;stroke-linejoin:round" /><path
     d="m 11847.525,11517.479 0,-112"
     id="path168"
     inkscape:connector-curvature="0"
     style="fill:none;stroke:#b3b3b3;stroke-linejoin:round" /><path
     d="m 11847.525,11517.479 0,-112"
     id="path170"
     inkscape:connector-curvature="0"
     style="fill:none;stroke:#b3b3b3;stroke-linejoin:round" /><path
     d="m 13260.525,11517.479 0,-112"
     id="path172"
     inkscape:connector-curvature="0"
     style="fill:none;stroke:#b3b3b3;stroke-linejoin:round" /><path
     d="m 13260.525,11517.479 0,-112"
     id="path174"
     inkscape:connector-curvature="0"
     style="fill:none;stroke:#b3b3b3;stroke-linejoin:round" /><path
     d="m 13967.525,11517.479 0,-112"
     id="path176"
     inkscape:connector-curvature="0"
     style="fill:none;stroke:#b3b3b3;stroke-linejoin:round" /><path
     d="m 13967.525,11517.479 0,-112"
     id="path178"
     inkscape:connector-curvature="0"
     style="fill:none;stroke:#b3b3b3;stroke-linejoin:round" /><path
     d="m 14674.525,11517.479 0,-112"
     id="path180"
     inkscape:connector-curvature="0"
     style="fill:none;stroke:#b3b3b3;stroke-linejoin:round" /><path
     d="m 14674.525,11517.479 0,-112"
     id="path182"
     inkscape:connector-curvature="0"
     style="fill:none;stroke:#b3b3b3;stroke-linejoin:round" /><path
     d="m 16088.525,11517.479 0,-112"
     id="path184"
     inkscape:connector-curvature="0"
     style="fill:none;stroke:#b3b3b3;stroke-linejoin:round" /><path
     d="m 16088.525,11517.479 0,-112"
     id="path186"
     inkscape:connector-curvature="0"
     style="fill:none;stroke:#b3b3b3;stroke-linejoin:round" /><path
     d="m 16796.525,11517.479 0,-112"
     id="path188"
     inkscape:connector-curvature="0"
     style="fill:none;stroke:#b3b3b3;stroke-linejoin:round" /><path
     d="m 16796.525,11517.479 0,-112"
     id="path190"
     inkscape:connector-curvature="0"
     style="fill:none;stroke:#b3b3b3;stroke-linejoin:round" /><path
     d="m 17503.525,11517.479 0,-112"
     id="path192"
     inkscape:connector-curvature="0"
     style="fill:none;stroke:#b3b3b3;stroke-linejoin:round" /><path
     d="m 17503.525,11517.479 0,-112"
     id="path194"
     inkscape:connector-curvature="0"
     style="fill:none;stroke:#b3b3b3;stroke-linejoin:round" /><path
     d="m 18917.525,11517.479 0,-112"
     id="path196"
     inkscape:connector-curvature="0"
     style="fill:none;stroke:#b3b3b3;stroke-linejoin:round" /><path
     d="m 18917.525,11517.479 0,-112"
     id="path198"
     inkscape:connector-curvature="0"
     style="fill:none;stroke:#b3b3b3;stroke-linejoin:round" /><path
     d="m 19624.525,11517.479 0,-112"
     id="path200"
     inkscape:connector-curvature="0"
     style="fill:none;stroke:#b3b3b3;stroke-linejoin:round" /><path
     d="m 19624.525,11517.479 0,-112"
     id="path202"
     inkscape:connector-curvature="0"
     style="fill:none;stroke:#b3b3b3;stroke-linejoin:round" /><path
     d="m 20331.525,11517.479 0,-112"
     id="path204"
     inkscape:connector-curvature="0"
     style="fill:none;stroke:#b3b3b3;stroke-linejoin:round" /><path
     d="m 20331.525,11517.479 0,-112"
     id="path206"
     inkscape:connector-curvature="0"
     style="fill:none;stroke:#b3b3b3;stroke-linejoin:round" /><path
     d="m 21745.525,11517.479 0,-112"
     id="path208"
     inkscape:connector-curvature="0"
     style="fill:none;stroke:#b3b3b3;stroke-linejoin:round" /><path
     d="m 21745.525,11517.479 0,-112"
     id="path210"
     inkscape:connector-curvature="0"
     style="fill:none;stroke:#b3b3b3;stroke-linejoin:round" /><path
     d="m 22452.525,11517.479 0,-112"
     id="path212"
     inkscape:connector-curvature="0"
     style="fill:none;stroke:#b3b3b3;stroke-linejoin:round" /><path
     d="m 22452.525,11517.479 0,-112"
     id="path214"
     inkscape:connector-curvature="0"
     style="fill:none;stroke:#b3b3b3;stroke-linejoin:round" /><path
     d="m 23159.525,11517.479 0,-112"
     id="path216"
     inkscape:connector-curvature="0"
     style="fill:none;stroke:#b3b3b3;stroke-linejoin:round" /><path
     d="m 23159.525,11517.479 0,-112"
     id="path218"
     inkscape:connector-curvature="0"
     style="fill:none;stroke:#b3b3b3;stroke-linejoin:round" /><path
     d="m 1241.5246,11405.479 22626.0004,0"
     id="path220"
     inkscape:connector-curvature="0"
     style="fill:none;stroke:#b3b3b3;stroke-linejoin:round" /><path
     d="m 1091.5246,11405.479 150,0"
     id="path222"
     inkscape:connector-curvature="0"
     style="fill:none;stroke:#b3b3b3;stroke-linejoin:round" /><path
     d="m 1091.5246,11405.479 150,0"
     id="path224"
     inkscape:connector-curvature="0"
     style="fill:none;stroke:#b3b3b3;stroke-linejoin:round" /><path
     d="m 1091.5246,9525.4795 150,0"
     id="path226"
     inkscape:connector-curvature="0"
     style="fill:none;stroke:#b3b3b3;stroke-linejoin:round" /><path
     d="m 1091.5246,9525.4795 150,0"
     id="path228"
     inkscape:connector-curvature="0"
     style="fill:none;stroke:#b3b3b3;stroke-linejoin:round" /><path
     d="m 1091.5246,7645.4795 150,0"
     id="path230"
     inkscape:connector-curvature="0"
     style="fill:none;stroke:#b3b3b3;stroke-linejoin:round" /><path
     d="m 1091.5246,7645.4795 150,0"
     id="path232"
     inkscape:connector-curvature="0"
     style="fill:none;stroke:#b3b3b3;stroke-linejoin:round" /><path
     d="m 1091.5246,5766.4795 150,0"
     id="path234"
     inkscape:connector-curvature="0"
     style="fill:none;stroke:#b3b3b3;stroke-linejoin:round" /><path
     d="m 1091.5246,5766.4795 150,0"
     id="path236"
     inkscape:connector-curvature="0"
     style="fill:none;stroke:#b3b3b3;stroke-linejoin:round" /><path
     d="m 1091.5246,3886.4795 150,0"
     id="path238"
     inkscape:connector-curvature="0"
     style="fill:none;stroke:#b3b3b3;stroke-linejoin:round" /><path
     d="m 1091.5246,3886.4795 150,0"
     id="path240"
     inkscape:connector-curvature="0"
     style="fill:none;stroke:#b3b3b3;stroke-linejoin:round" /><path
     d="m 1091.5246,2006.4795 150,0"
     id="path242"
     inkscape:connector-curvature="0"
     style="fill:none;stroke:#b3b3b3;stroke-linejoin:round" /><path
     d="m 1091.5246,2006.4795 150,0"
     id="path244"
     inkscape:connector-curvature="0"
     style="fill:none;stroke:#b3b3b3;stroke-linejoin:round" /><path
     d="m 1091.5246,126.47949 150,0"
     id="path246"
     inkscape:connector-curvature="0"
     style="fill:none;stroke:#b3b3b3;stroke-linejoin:round" /><path
     d="m 1091.5246,126.47949 150,0"
     id="path248"
     inkscape:connector-curvature="0"
     style="fill:none;stroke:#b3b3b3;stroke-linejoin:round" /><path
     d="m 1129.5246,10935.479 112,0"
     id="path250"
     inkscape:connector-curvature="0"
     style="fill:none;stroke:#b3b3b3;stroke-linejoin:round" /><path
     d="m 1129.5246,10935.479 112,0"
     id="path252"
     inkscape:connector-curvature="0"
     style="fill:none;stroke:#b3b3b3;stroke-linejoin:round" /><path
     d="m 1129.5246,10465.479 112,0"
     id="path254"
     inkscape:connector-curvature="0"
     style="fill:none;stroke:#b3b3b3;stroke-linejoin:round" /><path
     d="m 1129.5246,10465.479 112,0"
     id="path256"
     inkscape:connector-curvature="0"
     style="fill:none;stroke:#b3b3b3;stroke-linejoin:round" /><path
     d="m 1129.5246,9995.4795 112,0"
     id="path258"
     inkscape:connector-curvature="0"
     style="fill:none;stroke:#b3b3b3;stroke-linejoin:round" /><path
     d="m 1129.5246,9995.4795 112,0"
     id="path260"
     inkscape:connector-curvature="0"
     style="fill:none;stroke:#b3b3b3;stroke-linejoin:round" /><path
     d="m 1129.5246,9055.4795 112,0"
     id="path262"
     inkscape:connector-curvature="0"
     style="fill:none;stroke:#b3b3b3;stroke-linejoin:round" /><path
     d="m 1129.5246,9055.4795 112,0"
     id="path264"
     inkscape:connector-curvature="0"
     style="fill:none;stroke:#b3b3b3;stroke-linejoin:round" /><path
     d="m 1129.5246,8585.4795 112,0"
     id="path266"
     inkscape:connector-curvature="0"
     style="fill:none;stroke:#b3b3b3;stroke-linejoin:round" /><path
     d="m 1129.5246,8585.4795 112,0"
     id="path268"
     inkscape:connector-curvature="0"
     style="fill:none;stroke:#b3b3b3;stroke-linejoin:round" /><path
     d="m 1129.5246,8115.4795 112,0"
     id="path270"
     inkscape:connector-curvature="0"
     style="fill:none;stroke:#b3b3b3;stroke-linejoin:round" /><path
     d="m 1129.5246,8115.4795 112,0"
     id="path272"
     inkscape:connector-curvature="0"
     style="fill:none;stroke:#b3b3b3;stroke-linejoin:round" /><path
     d="m 1129.5246,7175.4795 112,0"
     id="path274"
     inkscape:connector-curvature="0"
     style="fill:none;stroke:#b3b3b3;stroke-linejoin:round" /><path
     d="m 1129.5246,7175.4795 112,0"
     id="path276"
     inkscape:connector-curvature="0"
     style="fill:none;stroke:#b3b3b3;stroke-linejoin:round" /><path
     d="m 1129.5246,6705.4795 112,0"
     id="path278"
     inkscape:connector-curvature="0"
     style="fill:none;stroke:#b3b3b3;stroke-linejoin:round" /><path
     d="m 1129.5246,6705.4795 112,0"
     id="path280"
     inkscape:connector-curvature="0"
     style="fill:none;stroke:#b3b3b3;stroke-linejoin:round" /><path
     d="m 1129.5246,6235.4795 112,0"
     id="path282"
     inkscape:connector-curvature="0"
     style="fill:none;stroke:#b3b3b3;stroke-linejoin:round" /><path
     d="m 1129.5246,6235.4795 112,0"
     id="path284"
     inkscape:connector-curvature="0"
     style="fill:none;stroke:#b3b3b3;stroke-linejoin:round" /><path
     d="m 1129.5246,5296.4795 112,0"
     id="path286"
     inkscape:connector-curvature="0"
     style="fill:none;stroke:#b3b3b3;stroke-linejoin:round" /><path
     d="m 1129.5246,5296.4795 112,0"
     id="path288"
     inkscape:connector-curvature="0"
     style="fill:none;stroke:#b3b3b3;stroke-linejoin:round" /><path
     d="m 1129.5246,4826.4795 112,0"
     id="path290"
     inkscape:connector-curvature="0"
     style="fill:none;stroke:#b3b3b3;stroke-linejoin:round" /><path
     d="m 1129.5246,4826.4795 112,0"
     id="path292"
     inkscape:connector-curvature="0"
     style="fill:none;stroke:#b3b3b3;stroke-linejoin:round" /><path
     d="m 1129.5246,4356.4795 112,0"
     id="path294"
     inkscape:connector-curvature="0"
     style="fill:none;stroke:#b3b3b3;stroke-linejoin:round" /><path
     d="m 1129.5246,4356.4795 112,0"
     id="path296"
     inkscape:connector-curvature="0"
     style="fill:none;stroke:#b3b3b3;stroke-linejoin:round" /><path
     d="m 1129.5246,3416.4795 112,0"
     id="path298"
     inkscape:connector-curvature="0"
     style="fill:none;stroke:#b3b3b3;stroke-linejoin:round" /><path
     d="m 1129.5246,3416.4795 112,0"
     id="path300"
     inkscape:connector-curvature="0"
     style="fill:none;stroke:#b3b3b3;stroke-linejoin:round" /><path
     d="m 1129.5246,2946.4795 112,0"
     id="path302"
     inkscape:connector-curvature="0"
     style="fill:none;stroke:#b3b3b3;stroke-linejoin:round" /><path
     d="m 1129.5246,2946.4795 112,0"
     id="path304"
     inkscape:connector-curvature="0"
     style="fill:none;stroke:#b3b3b3;stroke-linejoin:round" /><path
     d="m 1129.5246,2476.4795 112,0"
     id="path306"
     inkscape:connector-curvature="0"
     style="fill:none;stroke:#b3b3b3;stroke-linejoin:round" /><path
     d="m 1129.5246,2476.4795 112,0"
     id="path308"
     inkscape:connector-curvature="0"
     style="fill:none;stroke:#b3b3b3;stroke-linejoin:round" /><path
     d="m 1129.5246,1536.4795 112,0"
     id="path310"
     inkscape:connector-curvature="0"
     style="fill:none;stroke:#b3b3b3;stroke-linejoin:round" /><path
     d="m 1129.5246,1536.4795 112,0"
     id="path312"
     inkscape:connector-curvature="0"
     style="fill:none;stroke:#b3b3b3;stroke-linejoin:round" /><path
     d="m 1129.5246,1066.4795 112,0"
     id="path314"
     inkscape:connector-curvature="0"
     style="fill:none;stroke:#b3b3b3;stroke-linejoin:round" /><path
     d="m 1129.5246,1066.4795 112,0"
     id="path316"
     inkscape:connector-curvature="0"
     style="fill:none;stroke:#b3b3b3;stroke-linejoin:round" /><path
     d="m 1129.5246,596.47949 112,0"
     id="path318"
     inkscape:connector-curvature="0"
     style="fill:none;stroke:#b3b3b3;stroke-linejoin:round" /><path
     d="m 1129.5246,596.47949 112,0"
     id="path320"
     inkscape:connector-curvature="0"
     style="fill:none;stroke:#b3b3b3;stroke-linejoin:round" /><path
     d="m 1241.5246,11405.479 0,-11278.99951"
     id="path322"
     inkscape:connector-curvature="0"
     style="fill:none;stroke:#b3b3b3;stroke-linejoin:round" /><path
     d="m 1630.5246,848.47949 0,162.00001 -162,0 0,27 162,0 0,161 27,0 0,-161 161,0 0,-27 -161,0 0,-162.00001 -27,0 z"
     id="path324"
     inkscape:connector-curvature="0"
     style="fill:#004586;stroke:none" /><path
     d="m 1630.5246,848.47949 0,162.00001 -162,0 0,27 162,0 0,161 27,0 0,-161 161,0 0,-27 -161,0 0,-162.00001 -27,0 z"
     id="path326"
     inkscape:connector-curvature="0"
     style="fill:none;stroke:#004586;stroke-linejoin:round" /><path
     d="m 1620.5246,858.47949 0,161.00001 -161,0 0,27 161,0 0,162 27,0 0,-162 162,0 0,-27 -162,0 0,-161.00001 -27,0 z"
     id="path328"
     inkscape:connector-curvature="0"
     style="fill:#004586;stroke:none" /><path
     d="m 1620.5246,858.47949 0,161.00001 -161,0 0,27 161,0 0,162 27,0 0,-162 162,0 0,-27 -162,0 0,-161.00001 -27,0 z"
     id="path330"
     inkscape:connector-curvature="0"
     style="fill:none;stroke:#004586;stroke-linejoin:round" /><path
     d="m 22037.525,989.47949 0,162.00001 -162,0 0,27 162,0 0,161 27,0 0,-161 161,0 0,-27 -161,0 0,-162.00001 -27,0 z"
     id="path332"
     inkscape:connector-curvature="0"
     style="fill:#004586;stroke:none" /><path
     d="m 22037.525,989.47949 0,162.00001 -162,0 0,27 162,0 0,161 27,0 0,-161 161,0 0,-27 -161,0 0,-162.00001 -27,0 z"
     id="path334"
     inkscape:connector-curvature="0"
     style="fill:none;stroke:#004586;stroke-linejoin:round" /><path
     d="m 1667.5246,1126.4795 0,161 -161,0 0,27 161,0 0,162 28,0 0,-162 161,0 0,-27 -161,0 0,-161 -28,0 z"
     id="path336"
     inkscape:connector-curvature="0"
     style="fill:#004586;stroke:none" /><path
     d="m 1667.5246,1126.4795 0,161 -161,0 0,27 161,0 0,162 28,0 0,-162 161,0 0,-27 -161,0 0,-161 -28,0 z"
     id="path338"
     inkscape:connector-curvature="0"
     style="fill:none;stroke:#004586;stroke-linejoin:round" /><path
     d="m 6527.5246,10586.479 0,161 -162,0 0,27 162,0 0,162 27,0 0,-162 161,0 0,-27 -161,0 0,-161 -27,0 z"
     id="path340"
     inkscape:connector-curvature="0"
     style="fill:#004586;stroke:none" /><path
     d="m 6527.5246,10586.479 0,161 -162,0 0,27 162,0 0,162 27,0 0,-162 161,0 0,-27 -161,0 0,-161 -27,0 z"
     id="path342"
     inkscape:connector-curvature="0"
     style="fill:none;stroke:#004586;stroke-linejoin:round" /><path
     d="m 6744.5246,10586.479 0,161 -161,0 0,27 161,0 0,162 27,0 0,-162 162,0 0,-27 -162,0 0,-161 -27,0 z"
     id="path344"
     inkscape:connector-curvature="0"
     style="fill:#004586;stroke:none" /><path
     d="m 6744.5246,10586.479 0,161 -161,0 0,27 161,0 0,162 27,0 0,-162 162,0 0,-27 -162,0 0,-161 -27,0 z"
     id="path346"
     inkscape:connector-curvature="0"
     style="fill:none;stroke:#004586;stroke-linejoin:round" /><path
     d="m 22501.525,10586.479 0,161 -161,0 0,27 161,0 0,162 28,0 0,-162 161,0 0,-27 -161,0 0,-161 -28,0 z"
     id="path348"
     inkscape:connector-curvature="0"
     style="fill:#004586;stroke:none" /><path
     d="m 22501.525,10586.479 0,161 -161,0 0,27 161,0 0,162 28,0 0,-162 161,0 0,-27 -161,0 0,-161 -28,0 z"
     id="path350"
     inkscape:connector-curvature="0"
     style="fill:none;stroke:#004586;stroke-linejoin:round" /><path
     d="m 6515.5246,10609.479 0,161 -162,0 0,28 162,0 0,161 27,0 0,-161 161,0 0,-28 -161,0 0,-161 -27,0 z"
     id="path352"
     inkscape:connector-curvature="0"
     style="fill:#004586;stroke:none" /><path
     d="m 6515.5246,10609.479 0,161 -162,0 0,28 162,0 0,161 27,0 0,-161 161,0 0,-28 -161,0 0,-161 -27,0 z"
     id="path354"
     inkscape:connector-curvature="0"
     style="fill:none;stroke:#004586;stroke-linejoin:round" /><path
     d="m 1643.5246,1309.4795 -155,-155 -20,19 156,156 -156,155 20,20 155,-156 156,156 19,-20 -155,-155 155,-156 -19,-19 -156,155 z"
     id="path356"
     inkscape:connector-curvature="0"
     style="fill:#ff420e;stroke:none" /><path
     d="m 1643.5246,1309.4795 -155,-155 -20,19 156,156 -156,155 20,20 155,-156 156,156 19,-20 -155,-155 155,-156 -19,-19 -156,155 z"
     id="path358"
     inkscape:connector-curvature="0"
     style="fill:none;stroke:#ff420e;stroke-linejoin:round" /><path
     d="m 1634.5246,1314.4795 -156,-156 -19,20 155,155 -155,156 19,19 156,-155 155,155 20,-19 -156,-156 156,-155 -20,-20 -155,156 z"
     id="path360"
     inkscape:connector-curvature="0"
     style="fill:#ff420e;stroke:none" /><path
     d="m 1634.5246,1314.4795 -156,-156 -19,20 155,155 -155,156 19,19 156,-155 155,155 20,-19 -156,-156 156,-155 -20,-20 -155,156 z"
     id="path362"
     inkscape:connector-curvature="0"
     style="fill:none;stroke:#ff420e;stroke-linejoin:round" /><path
     d="m 22050.525,11103.479 -155,-155 -20,19 156,156 -156,155 20,20 155,-156 156,156 19,-20 -155,-155 155,-156 -19,-19 -156,155 z"
     id="path364"
     inkscape:connector-curvature="0"
     style="fill:#ff420e;stroke:none" /><path
     d="m 22050.525,11103.479 -155,-155 -20,19 156,156 -156,155 20,20 155,-156 156,156 19,-20 -155,-155 155,-156 -19,-19 -156,155 z"
     id="path366"
     inkscape:connector-curvature="0"
     style="fill:none;stroke:#ff420e;stroke-linejoin:round" /><path
     d="m 1681.5246,11131.479 -156,-155 -19,19 156,156 -156,155 19,20 156,-156 156,156 19,-20 -156,-155 156,-156 -19,-19 -156,155 z"
     id="path368"
     inkscape:connector-curvature="0"
     style="fill:#ff420e;stroke:none" /><path
     d="m 1681.5246,11131.479 -156,-155 -19,19 156,156 -156,155 19,20 156,-156 156,156 19,-20 -156,-155 156,-156 -19,-19 -156,155 z"
     id="path370"
     inkscape:connector-curvature="0"
     style="fill:none;stroke:#ff420e;stroke-linejoin:round" /><path
     d="m 6540.5246,10765.479 -155,-156 -20,19 156,156 -156,156 20,19 155,-156 156,156 19,-19 -155,-156 155,-156 -19,-19 -156,156 z"
     id="path372"
     inkscape:connector-curvature="0"
     style="fill:#ff420e;stroke:none" /><path
     d="m 6540.5246,10765.479 -155,-156 -20,19 156,156 -156,156 20,19 155,-156 156,156 19,-19 -155,-156 155,-156 -19,-19 -156,156 z"
     id="path374"
     inkscape:connector-curvature="0"
     style="fill:none;stroke:#ff420e;stroke-linejoin:round" /><path
     d="m 6758.5246,10765.479 -156,-156 -19,19 155,156 -155,156 19,19 156,-156 155,156 20,-19 -156,-156 156,-156 -20,-19 -155,156 z"
     id="path376"
     inkscape:connector-curvature="0"
     style="fill:#ff420e;stroke:none" /><path
     d="m 6758.5246,10765.479 -156,-156 -19,19 155,156 -155,156 19,19 156,-156 155,156 20,-19 -156,-156 156,-156 -20,-19 -155,156 z"
     id="path378"
     inkscape:connector-curvature="0"
     style="fill:none;stroke:#ff420e;stroke-linejoin:round" /><path
     d="m 22515.525,11131.479 -156,-155 -19,19 156,156 -156,155 19,20 156,-156 156,156 19,-20 -156,-155 156,-156 -19,-19 -156,155 z"
     id="path380"
     inkscape:connector-curvature="0"
     style="fill:#ff420e;stroke:none" /><path
     d="m 22515.525,11131.479 -156,-155 -19,19 156,156 -156,155 19,20 156,-156 156,156 19,-20 -156,-155 156,-156 -19,-19 -156,155 z"
     id="path382"
     inkscape:connector-curvature="0"
     style="fill:none;stroke:#ff420e;stroke-linejoin:round" /><path
     d="m 6528.5246,11169.479 -155,-156 -20,20 156,155 -156,156 20,19 155,-155 156,155 19,-19 -155,-156 155,-155 -19,-20 -156,156 z"
     id="path384"
     inkscape:connector-curvature="0"
     style="fill:#ff420e;stroke:none" /><path
     d="m 6528.5246,11169.479 -155,-156 -20,20 156,155 -156,156 20,19 155,-155 156,155 19,-19 -155,-156 155,-155 -19,-20 -156,156 z"
     id="path386"
     inkscape:connector-curvature="0"
     style="fill:none;stroke:#ff420e;stroke-linejoin:round" /><text
     class="TextShape"
     id="text388"
     x="-1094.4753"
     y="-1543.5205"><tspan
       class="TextParagraph"
       font-size="353px"
       font-weight="400"
       id="tspan390"
       style="font-size:353px;font-weight:400;font-family:Liberation Sans"><tspan
         class="TextPosition"
         x="1148.5247"
         y="11973.479"
         id="tspan392"><tspan
           id="tspan394"
           style="fill:#000000;stroke:none">0</tspan></tspan></tspan></text>
<text
     class="TextShape"
     id="text396"
     x="-1094.4753"
     y="-1543.5205"><tspan
       class="TextParagraph"
       font-size="353px"
       font-weight="400"
       id="tspan398"
       style="font-size:353px;font-weight:400;font-family:Liberation Sans"><tspan
         class="TextPosition"
         x="3791.5247"
         y="11973.479"
         id="tspan400"><tspan
           id="tspan402"
           style="fill:#000000;stroke:none">100</tspan></tspan></tspan></text>
<text
     class="TextShape"
     id="text404"
     x="-1094.4753"
     y="-1543.5205"><tspan
       class="TextParagraph"
       font-size="353px"
       font-weight="400"
       id="tspan406"
       style="font-size:353px;font-weight:400;font-family:Liberation Sans"><tspan
         class="TextPosition"
         x="6619.5244"
         y="11973.479"
         id="tspan408"><tspan
           id="tspan410"
           style="fill:#000000;stroke:none">200</tspan></tspan></tspan></text>
<text
     class="TextShape"
     id="text412"
     x="-1094.4753"
     y="-1543.5205"><tspan
       class="TextParagraph"
       font-size="353px"
       font-weight="400"
       id="tspan414"
       style="font-size:353px;font-weight:400;font-family:Liberation Sans"><tspan
         class="TextPosition"
         x="9448.5244"
         y="11973.479"
         id="tspan416"><tspan
           id="tspan418"
           style="fill:#000000;stroke:none">300</tspan></tspan></tspan></text>
<text
     class="TextShape"
     id="text420"
     x="-1094.4753"
     y="-1543.5205"><tspan
       class="TextParagraph"
       font-size="353px"
       font-weight="400"
       id="tspan422"
       style="font-size:353px;font-weight:400;font-family:Liberation Sans"><tspan
         class="TextPosition"
         x="12276.524"
         y="11973.479"
         id="tspan424"><tspan
           id="tspan426"
           style="fill:#000000;stroke:none">400</tspan></tspan></tspan></text>
<text
     class="TextShape"
     id="text428"
     x="-1094.4753"
     y="-1543.5205"><tspan
       class="TextParagraph"
       font-size="353px"
       font-weight="400"
       id="tspan430"
       style="font-size:353px;font-weight:400;font-family:Liberation Sans"><tspan
         class="TextPosition"
         x="15104.524"
         y="11973.479"
         id="tspan432"><tspan
           id="tspan434"
           style="fill:#000000;stroke:none">500</tspan></tspan></tspan></text>
<text
     class="TextShape"
     id="text436"
     x="-1094.4753"
     y="-1543.5205"><tspan
       class="TextParagraph"
       font-size="353px"
       font-weight="400"
       id="tspan438"
       style="font-size:353px;font-weight:400;font-family:Liberation Sans"><tspan
         class="TextPosition"
         x="17933.525"
         y="11973.479"
         id="tspan440"><tspan
           id="tspan442"
           style="fill:#000000;stroke:none">600</tspan></tspan></tspan></text>
<text
     class="TextShape"
     id="text444"
     x="-1094.4753"
     y="-1543.5205"><tspan
       class="TextParagraph"
       font-size="353px"
       font-weight="400"
       id="tspan446"
       style="font-size:353px;font-weight:400;font-family:Liberation Sans"><tspan
         class="TextPosition"
         x="20761.525"
         y="11973.479"
         id="tspan448"><tspan
           id="tspan450"
           style="fill:#000000;stroke:none">700</tspan></tspan></tspan></text>
<text
     class="TextShape"
     id="text452"
     x="-1094.4753"
     y="-1543.5205"><tspan
       class="TextParagraph"
       font-size="353px"
       font-weight="400"
       id="tspan454"
       style="font-size:353px;font-weight:400;font-family:Liberation Sans"><tspan
         class="TextPosition"
         x="23590.525"
         y="11973.479"
         id="tspan456"><tspan
           id="tspan458"
           style="fill:#000000;stroke:none">800</tspan></tspan></tspan></text>
<text
     class="TextShape"
     id="text460"
     x="-1094.4753"
     y="-1543.5205"><tspan
       class="TextParagraph"
       font-size="353px"
       font-weight="400"
       id="tspan462"
       style="font-size:353px;font-weight:400;font-family:Liberation Sans"><tspan
         class="TextPosition"
         x="806.52466"
         y="11526.479"
         id="tspan464"><tspan
           id="tspan466"
           style="fill:#000000;stroke:none">0</tspan></tspan></tspan></text>
<text
     class="TextShape"
     id="text468"
     x="-1094.4753"
     y="-1543.5205"><tspan
       class="TextParagraph"
       font-size="353px"
       font-weight="400"
       id="tspan470"
       style="font-size:353px;font-weight:400;font-family:Liberation Sans"><tspan
         class="TextPosition"
         x="806.52466"
         y="9646.4795"
         id="tspan472"><tspan
           id="tspan474"
           style="fill:#000000;stroke:none">4</tspan></tspan></tspan></text>
<text
     class="TextShape"
     id="text476"
     x="-1094.4753"
     y="-1543.5205"><tspan
       class="TextParagraph"
       font-size="353px"
       font-weight="400"
       id="tspan478"
       style="font-size:353px;font-weight:400;font-family:Liberation Sans"><tspan
         class="TextPosition"
         x="806.52466"
         y="7766.4795"
         id="tspan480"><tspan
           id="tspan482"
           style="fill:#000000;stroke:none">8</tspan></tspan></tspan></text>
<text
     class="TextShape"
     id="text484"
     x="-1094.4753"
     y="-1543.5205"><tspan
       class="TextParagraph"
       font-size="353px"
       font-weight="400"
       id="tspan486"
       style="font-size:353px;font-weight:400;font-family:Liberation Sans"><tspan
         class="TextPosition"
         x="621.52466"
         y="5886.4795"
         id="tspan488"><tspan
           id="tspan490"
           style="fill:#000000;stroke:none">12</tspan></tspan></tspan></text>
<text
     class="TextShape"
     id="text492"
     x="-1094.4753"
     y="-1543.5205"><tspan
       class="TextParagraph"
       font-size="353px"
       font-weight="400"
       id="tspan494"
       style="font-size:353px;font-weight:400;font-family:Liberation Sans"><tspan
         class="TextPosition"
         x="621.52466"
         y="4006.4795"
         id="tspan496"><tspan
           id="tspan498"
           style="fill:#000000;stroke:none">16</tspan></tspan></tspan></text>
<text
     class="TextShape"
     id="text500"
     x="-1094.4753"
     y="-1543.5205"><tspan
       class="TextParagraph"
       font-size="353px"
       font-weight="400"
       id="tspan502"
       style="font-size:353px;font-weight:400;font-family:Liberation Sans"><tspan
         class="TextPosition"
         x="621.52466"
         y="2126.4795"
         id="tspan504"><tspan
           id="tspan506"
           style="fill:#000000;stroke:none">20</tspan></tspan></tspan></text>
<text
     class="TextShape"
     id="text508"
     x="-1094.4753"
     y="-1543.5205"><tspan
       class="TextParagraph"
       font-size="353px"
       font-weight="400"
       id="tspan510"
       style="font-size:353px;font-weight:400;font-family:Liberation Sans"><tspan
         class="TextPosition"
         x="621.52466"
         y="246.47949"
         id="tspan512"><tspan
           id="tspan514"
           style="fill:#000000;stroke:none">24</tspan></tspan></tspan></text>
<path
     d="m 11905.608,3440.539 -3599.1429,0 0,-2435.119 7198.2879,0 0,2435.119 -3599.145,0 z"
     id="path516"
     inkscape:connector-curvature="0"
     style="fill:#ffffff;stroke:#ffffff;stroke-width:30.10284042" /><path
     d="m 9127.5246,1723.4795 -104,-103 -12,12 103,104 -103,103 12,13 104,-104 103,104 13,-13 -104,-103 104,-104 -13,-12 -103,103 z"
     id="path518"
     inkscape:connector-curvature="0"
     style="fill:#ff420e;stroke:none" /><path
     d="m 9127.5246,1723.4795 -104,-103 -12,12 103,104 -103,103 12,13 104,-104 103,104 13,-13 -104,-103 104,-104 -13,-12 -103,103 z"
     id="path520"
     inkscape:connector-curvature="0"
     style="fill:none;stroke:#ff420e;stroke-linejoin:round" /><path
     d="m 9117.5246,2591.4795 0,106 -106,0 0,19 106,0 0,107 19,0 0,-107 107,0 0,-19 -107,0 0,-106 -19,0 z"
     id="path522"
     inkscape:connector-curvature="0"
     style="fill:#004586;stroke:none" /><path
     d="m 9117.5246,2591.4795 0,106 -106,0 0,19 106,0 0,107 19,0 0,-107 107,0 0,-19 -107,0 0,-106 -19,0 z"
     id="path524"
     inkscape:connector-curvature="0"
     style="fill:none;stroke:#004586;stroke-linejoin:round" /><text
     class="TextShape"
     id="text526"
     x="-1094.4753"
     y="-1543.5205"><tspan
       class="TextParagraph"
       font-size="388px"
       font-weight="400"
       id="tspan528"
       style="font-size:388px;font-weight:400;font-family:Liberation Sans"><tspan
         class="TextPosition"
         x="9343.5244"
         y="1868.4795"
         id="tspan530"><tspan
           id="tspan532"
           style="fill:#000000;stroke:none">Energy consumed (RDC) slave</tspan></tspan></tspan></text>
<text
     class="TextShape"
     id="text534"
     x="-1094.4753"
     y="-1543.5205"><tspan
       class="TextParagraph"
       font-size="388px"
       font-weight="400"
       id="tspan536"
       style="font-size:388px;font-weight:400;font-family:Liberation Sans"><tspan
         class="TextPosition"
         x="9343.5244"
         y="2839.4795"
         id="tspan538"><tspan
           id="tspan540"
           style="fill:#000000;stroke:none">Energy consumed (RDC) master</tspan></tspan></tspan></text>
<text
     class="TextShape"
     id="text542"
     y="-1858.7603"
     x="-1094.4753"><tspan
       class="TextParagraph"
       font-size="388px"
       font-weight="400"
       id="tspan544"
       style="font-size:388px;font-weight:400;font-family:Liberation Sans"><tspan
         class="TextPosition"
         x="11233.524"
         y="12522.24"
         id="tspan546"><tspan
           id="tspan548"
           style="fill:#000000;stroke:none">Latency (ms)</tspan></tspan></tspan></text>
<text
     class="TextShape"
     id="text550"
     x="-7621.5264"
     y="-8046.8516"
     transform="matrix(0,-1,1,0,0,0)"><tspan
       class="TextParagraph"
       font-size="388px"
       font-weight="400"
       id="tspan552"
       style="font-size:388px;font-weight:400;font-family:Liberation Sans"><tspan
         class="TextPosition"
         x="-6653.5264"
         y="281.14841"
         transform="matrix(0,-1,1,0,-7360,9296)"
         id="tspan554"><tspan
           id="tspan556"
           style="fill:#000000;stroke:none">RDC (%)</tspan></tspan></tspan></text>
</svg>