<?xml version="1.0" encoding="UTF-8" standalone="no"?>
<!DOCTYPE svg PUBLIC "-//W3C//DTD SVG 1.1//EN"
 "http://www.w3.org/Graphics/SVG/1.1/DTD/svg11.dtd">
<!-- Generated by graphviz version 2.36.0 (20140111.2315)
 -->
<!-- Title: scan_interval Pages: 1 -->
<svg width="420pt" height="254pt"
 viewBox="0.00 0.00 420.00 254.00" xmlns="http://www.w3.org/2000/svg" xmlns:xlink="http://www.w3.org/1999/xlink">
<g id="graph0" class="graph" transform="scale(1 1) rotate(0) translate(4 250)">
<title>scan_interval</title>
<polygon fill="white" stroke="none" points="-4,4 -4,-250 416,-250 416,4 -4,4"/>
<!-- start -->
<g id="node1" class="node"><title>start</title>
<ellipse fill="none" stroke="black" cx="206" cy="-219" rx="134.026" ry="26.7407"/>
<text text-anchor="middle" x="206" y="-222.8" font-family="Helvetica Neue" font-size="14.00">Function called at the </text>
<text text-anchor="middle" x="206" y="-207.8" font-family="Helvetica Neue" font-size="14.00">beginning of a scan interval</text>
</g>
<!-- led_on -->
<g id="node2" class="node"><title>led_on</title>
<polygon fill="none" stroke="black" points="412.25,-155.5 -0.25,-155.5 -0.25,-72.5 412.25,-72.5 412.25,-155.5"/>
<text text-anchor="middle" x="206" y="-140.3" font-family="Helvetica Neue" font-size="14.00">1. Switch on the red LED</text>
<text text-anchor="middle" x="206" y="-125.3" font-family="Helvetica Neue" font-size="14.00">2. Reset the received packet counter</text>
<text text-anchor="middle" x="206" y="-110.3" font-family="Helvetica Neue" font-size="14.00">3. Cyclically switch the radio to the next advertisement channel</text>
<text text-anchor="middle" x="206" y="-95.3" font-family="Helvetica Neue" font-size="14.00">4. Switch on the radio reception</text>
<text text-anchor="middle" x="206" y="-80.3" font-family="Helvetica Neue" font-size="14.00">5. Start the one shot timer with the length of the scan window</text>
</g>
<!-- start&#45;&gt;led_on -->
<g id="edge1" class="edge"><title>start&#45;&gt;led_on</title>
<path fill="none" stroke="black" d="M206,-192.009C206,-184.042 206,-174.985 206,-165.95"/>
<polygon fill="black" stroke="black" points="209.5,-165.819 206,-155.819 202.5,-165.819 209.5,-165.819"/>
</g>
<!-- stop -->
<g id="node3" class="node"><title>stop</title>
<ellipse fill="none" stroke="black" cx="206" cy="-18" rx="38.0212" ry="18"/>
<text text-anchor="middle" x="206" y="-14.3" font-family="Helvetica Neue" font-size="14.00">Return</text>
</g>
<!-- led_on&#45;&gt;stop -->
<g id="edge2" class="edge"><title>led_on&#45;&gt;stop</title>
<path fill="none" stroke="black" d="M206,-72.3169C206,-63.4849 206,-54.3497 206,-46.1897"/>
<polygon fill="black" stroke="black" points="209.5,-46.1317 206,-36.1317 202.5,-46.1318 209.5,-46.1317"/>
</g>
</g>
</svg>
