<?xml version="1.0" encoding="UTF-8" standalone="no"?>
<!DOCTYPE svg PUBLIC "-//W3C//DTD SVG 1.1//EN"
 "http://www.w3.org/Graphics/SVG/1.1/DTD/svg11.dtd">
<!-- Generated by graphviz version 2.36.0 (20140111.2315)
 -->
<!-- Title: scan_window Pages: 1 -->
<svg width="268pt" height="238pt"
 viewBox="0.00 0.00 268.00 238.00" xmlns="http://www.w3.org/2000/svg" xmlns:xlink="http://www.w3.org/1999/xlink">
<g id="graph0" class="graph" transform="scale(1 1) rotate(0) translate(4 234)">
<title>scan_window</title>
<polygon fill="white" stroke="none" points="-4,4 -4,-234 264,-234 264,4 -4,4"/>
<!-- start -->
<g id="node1" class="node"><title>start</title>
<ellipse fill="none" stroke="black" cx="130" cy="-203" rx="111.024" ry="26.7407"/>
<text text-anchor="middle" x="130" y="-206.8" font-family="Helvetica Neue" font-size="14.00">Function called at the </text>
<text text-anchor="middle" x="130" y="-191.8" font-family="Helvetica Neue" font-size="14.00">end of a scan window</text>
</g>
<!-- led_off -->
<g id="node2" class="node"><title>led_off</title>
<polygon fill="none" stroke="black" points="260.25,-140 -0.25,-140 -0.25,-72 260.25,-72 260.25,-140"/>
<text text-anchor="middle" x="130" y="-124.8" font-family="Helvetica Neue" font-size="14.00">1. Disable the radio</text>
<text text-anchor="middle" x="130" y="-109.8" font-family="Helvetica Neue" font-size="14.00">2. Print the information of all the</text>
<text text-anchor="middle" x="130" y="-94.8" font-family="Helvetica Neue" font-size="14.00">packets received based on the counter</text>
<text text-anchor="middle" x="130" y="-79.8" font-family="Helvetica Neue" font-size="14.00">3. Switch off the red LED</text>
</g>
<!-- start&#45;&gt;led_off -->
<g id="edge1" class="edge"><title>start&#45;&gt;led_off</title>
<path fill="none" stroke="black" d="M130,-176.041C130,-168.065 130,-159.06 130,-150.253"/>
<polygon fill="black" stroke="black" points="133.5,-150.076 130,-140.076 126.5,-150.076 133.5,-150.076"/>
</g>
<!-- stop -->
<g id="node3" class="node"><title>stop</title>
<ellipse fill="none" stroke="black" cx="130" cy="-18" rx="38.0212" ry="18"/>
<text text-anchor="middle" x="130" y="-14.3" font-family="Helvetica Neue" font-size="14.00">Return</text>
</g>
<!-- led_off&#45;&gt;stop -->
<g id="edge2" class="edge"><title>led_off&#45;&gt;stop</title>
<path fill="none" stroke="black" d="M130,-71.9961C130,-63.5646 130,-54.5902 130,-46.4696"/>
<polygon fill="black" stroke="black" points="133.5,-46.4033 130,-36.4034 126.5,-46.4034 133.5,-46.4033"/>
</g>
</g>
</svg>
