<?xml version="1.0" encoding="UTF-8" standalone="no"?>
<!DOCTYPE svg PUBLIC "-//W3C//DTD SVG 1.1//EN"
 "http://www.w3.org/Graphics/SVG/1.1/DTD/svg11.dtd">
<!-- Generated by graphviz version 2.36.0 (20140111.2315)
 -->
<!-- Title: uart_handler_flow Pages: 1 -->
<svg width="515pt" height="496pt"
 viewBox="0.00 0.00 515.00 496.00" xmlns="http://www.w3.org/2000/svg" xmlns:xlink="http://www.w3.org/1999/xlink">
<g id="graph0" class="graph" transform="scale(1 1) rotate(0) translate(4 492)">
<title>uart_handler_flow</title>
<polygon fill="white" stroke="none" points="-4,4 -4,-492 511,-492 511,4 -4,4"/>
<!-- a -->
<g id="node1" class="node"><title>a</title>
<ellipse fill="none" stroke="black" cx="298" cy="-470" rx="176.177" ry="18"/>
<text text-anchor="middle" x="298" y="-466.3" font-family="Times,serif" font-size="14.00">Called with unsigned char pointer as argument</text>
</g>
<!-- b -->
<g id="node2" class="node"><title>b</title>
<polygon fill="none" stroke="black" points="298,-414 196.5,-376 298,-338 399.5,-376 298,-414"/>
<text text-anchor="middle" x="298" y="-379.8" font-family="Times,serif" font-size="14.00">Is the received</text>
<text text-anchor="middle" x="298" y="-364.8" font-family="Times,serif" font-size="14.00">string &#39;START?</text>
</g>
<!-- a&#45;&gt;b -->
<g id="edge1" class="edge"><title>a&#45;&gt;b</title>
<path fill="none" stroke="black" d="M298,-451.696C298,-443.815 298,-434.063 298,-424.236"/>
<polygon fill="black" stroke="black" points="301.5,-424.043 298,-414.043 294.5,-424.043 301.5,-424.043"/>
</g>
<!-- c -->
<g id="node3" class="node"><title>c</title>
<polygon fill="none" stroke="black" points="190,-271 94,-233 190,-195 286,-233 190,-271"/>
<text text-anchor="middle" x="190" y="-236.8" font-family="Times,serif" font-size="14.00">Is the received</text>
<text text-anchor="middle" x="190" y="-221.8" font-family="Times,serif" font-size="14.00">string &#39;STOP?</text>
</g>
<!-- b&#45;&gt;c -->
<g id="edge2" class="edge"><title>b&#45;&gt;c</title>
<path fill="none" stroke="black" d="M275.884,-346.126C259.212,-324.361 236.224,-294.348 218.226,-270.85"/>
<polygon fill="black" stroke="black" points="220.946,-268.646 212.086,-262.835 215.389,-272.902 220.946,-268.646"/>
<text text-anchor="middle" x="267" y="-308.3" font-family="Times,serif" font-size="14.00">false</text>
</g>
<!-- d -->
<g id="node4" class="node"><title>d</title>
<polygon fill="none" stroke="black" points="406,-286 304.5,-233 406,-180 507.5,-233 406,-286"/>
<text text-anchor="middle" x="406" y="-244.3" font-family="Times,serif" font-size="14.00">Is the</text>
<text text-anchor="middle" x="406" y="-229.3" font-family="Times,serif" font-size="14.00">Scan&#45;Window</text>
<text text-anchor="middle" x="406" y="-214.3" font-family="Times,serif" font-size="14.00">Timer running?</text>
</g>
<!-- b&#45;&gt;d -->
<g id="edge3" class="edge"><title>b&#45;&gt;d</title>
<path fill="none" stroke="black" d="M320.116,-346.126C334.836,-326.908 354.481,-301.261 371.267,-279.346"/>
<polygon fill="black" stroke="black" points="374.242,-281.218 377.544,-271.151 368.685,-276.961 374.242,-281.218"/>
<text text-anchor="middle" x="363" y="-308.3" font-family="Times,serif" font-size="14.00">true</text>
</g>
<!-- e -->
<g id="node6" class="node"><title>e</title>
<polygon fill="none" stroke="black" points="194.25,-127.5 -0.25,-127.5 -0.25,-74.5 194.25,-74.5 194.25,-127.5"/>
<text text-anchor="middle" x="97" y="-112.3" font-family="Times,serif" font-size="14.00">1. Disable the Radio</text>
<text text-anchor="middle" x="97" y="-97.3" font-family="Times,serif" font-size="14.00">2. Stop the Scan&#45;Window Timer</text>
<text text-anchor="middle" x="97" y="-82.3" font-family="Times,serif" font-size="14.00">3. Stop the Scan&#45;Interval Timer</text>
</g>
<!-- c&#45;&gt;e -->
<g id="edge4" class="edge"><title>c&#45;&gt;e</title>
<path fill="none" stroke="black" d="M169.36,-203.149C155.156,-183.294 136.232,-156.841 121.299,-135.967"/>
<polygon fill="black" stroke="black" points="124.042,-133.785 115.377,-127.689 118.349,-137.858 124.042,-133.785"/>
<text text-anchor="middle" x="149" y="-150.3" font-family="Times,serif" font-size="14.00">true</text>
</g>
<!-- f -->
<g id="node7" class="node"><title>f</title>
<ellipse fill="none" stroke="black" cx="271" cy="-18" rx="34.1708" ry="18"/>
<text text-anchor="middle" x="271" y="-14.3" font-family="Times,serif" font-size="14.00">Return</text>
</g>
<!-- c&#45;&gt;f -->
<g id="edge5" class="edge"><title>c&#45;&gt;f</title>
<path fill="none" stroke="black" d="M198.491,-198.286C207.179,-165.788 221.943,-115.562 240,-74 244.39,-63.8967 250.11,-53.2496 255.441,-44.0428"/>
<polygon fill="black" stroke="black" points="258.482,-45.7753 260.577,-35.3895 252.463,-42.2023 258.482,-45.7753"/>
<text text-anchor="middle" x="253" y="-97.3" font-family="Times,serif" font-size="14.00">false</text>
</g>
<!-- g -->
<g id="node5" class="node"><title>g</title>
<polygon fill="none" stroke="black" points="454.25,-120 275.75,-120 275.75,-82 454.25,-82 454.25,-120"/>
<text text-anchor="middle" x="365" y="-104.8" font-family="Times,serif" font-size="14.00">Start the repetitive timer</text>
<text text-anchor="middle" x="365" y="-89.8" font-family="Times,serif" font-size="14.00">with duration of scan window</text>
</g>
<!-- d&#45;&gt;g -->
<g id="edge6" class="edge"><title>d&#45;&gt;g</title>
<path fill="none" stroke="black" d="M391.89,-187.261C385.867,-168.163 379.026,-146.472 373.751,-129.748"/>
<polygon fill="black" stroke="black" points="377.037,-128.528 370.691,-120.044 370.361,-130.634 377.037,-128.528"/>
<text text-anchor="middle" x="397" y="-150.3" font-family="Times,serif" font-size="14.00">false</text>
</g>
<!-- d&#45;&gt;f -->
<g id="edge7" class="edge"><title>d&#45;&gt;f</title>
<path fill="none" stroke="black" d="M437.1,-196.116C462.699,-162.029 490.645,-110.677 463,-74 445.085,-50.2326 364.855,-33.6084 313.943,-25.2352"/>
<polygon fill="black" stroke="black" points="314.295,-21.7471 303.868,-23.6224 313.189,-28.6591 314.295,-21.7471"/>
<text text-anchor="middle" x="485" y="-97.3" font-family="Times,serif" font-size="14.00">true</text>
</g>
<!-- g&#45;&gt;f -->
<g id="edge9" class="edge"><title>g&#45;&gt;f</title>
<path fill="none" stroke="black" d="M343.67,-81.6198C329.502,-69.411 310.844,-53.3336 295.981,-40.5266"/>
<polygon fill="black" stroke="black" points="298.028,-37.6698 288.168,-33.7933 293.458,-42.9726 298.028,-37.6698"/>
</g>
<!-- e&#45;&gt;f -->
<g id="edge8" class="edge"><title>e&#45;&gt;f</title>
<path fill="none" stroke="black" d="M152.055,-74.3711C179.83,-61.4413 212.649,-46.1632 236.771,-34.9343"/>
<polygon fill="black" stroke="black" points="238.296,-38.085 245.885,-30.6916 235.342,-31.7389 238.296,-38.085"/>
</g>
</g>
</svg>
