<?xml version="1.0" encoding="UTF-8" standalone="no"?>
<!DOCTYPE svg PUBLIC "-//W3C//DTD SVG 1.1//EN"
 "http://www.w3.org/Graphics/SVG/1.1/DTD/svg11.dtd">
<!-- Generated by graphviz version 2.36.0 (20140111.2315)
 -->
<!-- Title: uart_handler_flow Pages: 1 -->
<svg width="569pt" height="496pt"
 viewBox="0.00 0.00 569.00 496.00" xmlns="http://www.w3.org/2000/svg" xmlns:xlink="http://www.w3.org/1999/xlink">
<g id="graph0" class="graph" transform="scale(1 1) rotate(0) translate(4 492)">
<title>uart_handler_flow</title>
<polygon fill="white" stroke="none" points="-4,4 -4,-492 565,-492 565,4 -4,4"/>
<!-- a -->
<g id="node1" class="node"><title>a</title>
<ellipse fill="none" stroke="black" cx="328" cy="-470" rx="201.223" ry="18"/>
<text text-anchor="middle" x="328" y="-466.3" font-family="Helvetica Neue" font-size="14.00">Called with unsigned char pointer as argument</text>
</g>
<!-- b -->
<g id="node2" class="node"><title>b</title>
<polygon fill="none" stroke="black" points="328,-414 218,-376 328,-338 438,-376 328,-414"/>
<text text-anchor="middle" x="328" y="-379.8" font-family="Helvetica Neue" font-size="14.00">Is the received</text>
<text text-anchor="middle" x="328" y="-364.8" font-family="Helvetica Neue" font-size="14.00">string &#39;START?</text>
</g>
<!-- a&#45;&gt;b -->
<g id="edge1" class="edge"><title>a&#45;&gt;b</title>
<path fill="none" stroke="black" d="M328,-451.696C328,-443.815 328,-434.063 328,-424.236"/>
<polygon fill="black" stroke="black" points="331.5,-424.043 328,-414.043 324.5,-424.043 331.5,-424.043"/>
</g>
<!-- c -->
<g id="node3" class="node"><title>c</title>
<polygon fill="none" stroke="black" points="210,-271 103.5,-233 210,-195 316.5,-233 210,-271"/>
<text text-anchor="middle" x="210" y="-236.8" font-family="Helvetica Neue" font-size="14.00">Is the received</text>
<text text-anchor="middle" x="210" y="-221.8" font-family="Helvetica Neue" font-size="14.00">string &#39;STOP?</text>
</g>
<!-- b&#45;&gt;c -->
<g id="edge2" class="edge"><title>b&#45;&gt;c</title>
<path fill="none" stroke="black" d="M303.836,-346.126C285.541,-324.266 260.284,-294.086 240.582,-270.543"/>
<polygon fill="black" stroke="black" points="243.234,-268.258 234.131,-262.835 237.865,-272.75 243.234,-268.258"/>
<text text-anchor="middle" x="295" y="-308.3" font-family="Helvetica Neue" font-size="14.00">false</text>
</g>
<!-- d -->
<g id="node4" class="node"><title>d</title>
<polygon fill="none" stroke="black" points="448,-286 335,-233 448,-180 561,-233 448,-286"/>
<text text-anchor="middle" x="448" y="-244.3" font-family="Helvetica Neue" font-size="14.00">Is the</text>
<text text-anchor="middle" x="448" y="-229.3" font-family="Helvetica Neue" font-size="14.00">Scan&#45;Window</text>
<text text-anchor="middle" x="448" y="-214.3" font-family="Helvetica Neue" font-size="14.00">Timer running?</text>
</g>
<!-- b&#45;&gt;d -->
<g id="edge3" class="edge"><title>b&#45;&gt;d</title>
<path fill="none" stroke="black" d="M352.573,-346.126C368.94,-326.895 390.786,-301.227 409.445,-279.302"/>
<polygon fill="black" stroke="black" points="412.344,-281.296 416.16,-271.412 407.013,-276.759 412.344,-281.296"/>
<text text-anchor="middle" x="400.5" y="-308.3" font-family="Helvetica Neue" font-size="14.00">true</text>
</g>
<!-- e -->
<g id="node6" class="node"><title>e</title>
<polygon fill="none" stroke="black" points="218,-127.5 0,-127.5 0,-74.5 218,-74.5 218,-127.5"/>
<text text-anchor="middle" x="109" y="-112.3" font-family="Helvetica Neue" font-size="14.00">1. Disable the Radio</text>
<text text-anchor="middle" x="109" y="-97.3" font-family="Helvetica Neue" font-size="14.00">2. Stop the Scan&#45;Window Timer</text>
<text text-anchor="middle" x="109" y="-82.3" font-family="Helvetica Neue" font-size="14.00">3. Stop the Scan&#45;Interval Timer</text>
</g>
<!-- c&#45;&gt;e -->
<g id="edge4" class="edge"><title>c&#45;&gt;e</title>
<path fill="none" stroke="black" d="M187.334,-202.825C171.828,-182.867 151.23,-156.355 135.048,-135.527"/>
<polygon fill="black" stroke="black" points="137.758,-133.311 128.859,-127.561 132.231,-137.606 137.758,-133.311"/>
<text text-anchor="middle" x="166.5" y="-150.3" font-family="Helvetica Neue" font-size="14.00">true</text>
</g>
<!-- f -->
<g id="node7" class="node"><title>f</title>
<ellipse fill="none" stroke="black" cx="297" cy="-18" rx="38.0212" ry="18"/>
<text text-anchor="middle" x="297" y="-14.3" font-family="Helvetica Neue" font-size="14.00">Return</text>
</g>
<!-- c&#45;&gt;f -->
<g id="edge5" class="edge"><title>c&#45;&gt;f</title>
<path fill="none" stroke="black" d="M218.905,-198.15C228.045,-165.552 243.645,-115.255 263,-74 267.792,-63.7862 274.061,-53.1154 279.91,-43.9205"/>
<polygon fill="black" stroke="black" points="283.009,-45.5755 285.548,-35.2892 277.149,-41.7474 283.009,-45.5755"/>
<text text-anchor="middle" x="278" y="-97.3" font-family="Helvetica Neue" font-size="14.00">false</text>
</g>
<!-- g -->
<g id="node5" class="node"><title>g</title>
<polygon fill="none" stroke="black" points="504,-120 302,-120 302,-82 504,-82 504,-120"/>
<text text-anchor="middle" x="403" y="-104.8" font-family="Helvetica Neue" font-size="14.00">Start the repetitive timer</text>
<text text-anchor="middle" x="403" y="-89.8" font-family="Helvetica Neue" font-size="14.00">with duration of scan window</text>
</g>
<!-- d&#45;&gt;g -->
<g id="edge6" class="edge"><title>d&#45;&gt;g</title>
<path fill="none" stroke="black" d="M432.514,-187.261C425.903,-168.163 418.394,-146.472 412.605,-129.748"/>
<polygon fill="black" stroke="black" points="415.825,-128.349 409.246,-120.044 409.21,-130.639 415.825,-128.349"/>
<text text-anchor="middle" x="437" y="-150.3" font-family="Helvetica Neue" font-size="14.00">false</text>
</g>
<!-- d&#45;&gt;f -->
<g id="edge7" class="edge"><title>d&#45;&gt;f</title>
<path fill="none" stroke="black" d="M482.466,-195.884C510.656,-161.863 541.579,-110.767 513,-74 492.488,-47.6105 401.303,-31.7918 344.165,-24.2941"/>
<polygon fill="black" stroke="black" points="344.279,-20.7804 333.917,-22.9903 343.395,-27.7245 344.279,-20.7804"/>
<text text-anchor="middle" x="536.5" y="-97.3" font-family="Helvetica Neue" font-size="14.00">true</text>
</g>
<!-- g&#45;&gt;f -->
<g id="edge9" class="edge"><title>g&#45;&gt;f</title>
<path fill="none" stroke="black" d="M379.212,-81.822C362.994,-69.4294 341.47,-52.9817 324.514,-40.0246"/>
<polygon fill="black" stroke="black" points="326.186,-36.8977 316.115,-33.6069 321.936,-42.4597 326.186,-36.8977"/>
</g>
<!-- e&#45;&gt;f -->
<g id="edge8" class="edge"><title>e&#45;&gt;f</title>
<path fill="none" stroke="black" d="M168.226,-74.4823C198.385,-61.4886 234.102,-46.0997 260.261,-34.8291"/>
<polygon fill="black" stroke="black" points="261.988,-37.896 269.787,-30.7247 259.218,-31.4673 261.988,-37.896"/>
</g>
</g>
</svg>
